ISO-10303-21;
HEADER;
FILE_DESCRIPTION((''),'2;1');
FILE_NAME('CAP','2024-11-08T09:34:57',('d.digloria'),(''),
'CREO PARAMETRIC BY PTC INC, 2020053','CREO PARAMETRIC BY PTC INC, 2020053','');
FILE_SCHEMA(('CONFIG_CONTROL_DESIGN'));
ENDSEC;
DATA;
#2=DIRECTION('',(1.E0,0.E0,0.E0));
#3=VECTOR('',#2,1.436E2);
#4=CARTESIAN_POINT('',(-7.18E1,0.E0,4.93E1));
#5=LINE('',#4,#3);
#6=DIRECTION('',(0.E0,0.E0,-1.E0));
#7=VECTOR('',#6,7.68E1);
#8=CARTESIAN_POINT('',(7.18E1,0.E0,4.93E1));
#9=LINE('',#8,#7);
#10=CARTESIAN_POINT('',(5.E1,0.E0,-2.75E1));
#11=DIRECTION('',(0.E0,1.E0,0.E0));
#12=DIRECTION('',(1.E0,0.E0,0.E0));
#13=AXIS2_PLACEMENT_3D('',#10,#11,#12);
#15=DIRECTION('',(-1.E0,0.E0,0.E0));
#16=VECTOR('',#15,1.E2);
#17=CARTESIAN_POINT('',(5.E1,0.E0,-4.93E1));
#18=LINE('',#17,#16);
#19=CARTESIAN_POINT('',(-5.E1,0.E0,-2.75E1));
#20=DIRECTION('',(0.E0,1.E0,0.E0));
#21=DIRECTION('',(0.E0,0.E0,-1.E0));
#22=AXIS2_PLACEMENT_3D('',#19,#20,#21);
#24=DIRECTION('',(0.E0,0.E0,1.E0));
#25=VECTOR('',#24,7.68E1);
#26=CARTESIAN_POINT('',(-7.18E1,0.E0,-2.75E1));
#27=LINE('',#26,#25);
#28=CARTESIAN_POINT('',(4.299346911097E1,0.E0,-4.707295443047E1));
#29=DIRECTION('',(0.E0,-1.E0,0.E0));
#30=DIRECTION('',(-1.E0,0.E0,0.E0));
#31=AXIS2_PLACEMENT_3D('',#28,#29,#30);
#33=CARTESIAN_POINT('',(4.299346911097E1,0.E0,-4.707295443047E1));
#34=DIRECTION('',(0.E0,-1.E0,0.E0));
#35=DIRECTION('',(1.E0,0.E0,0.E0));
#36=AXIS2_PLACEMENT_3D('',#33,#34,#35);
#38=CARTESIAN_POINT('',(-4.299346911097E1,0.E0,-4.707295443047E1));
#39=DIRECTION('',(0.E0,-1.E0,0.E0));
#40=DIRECTION('',(-1.E0,0.E0,0.E0));
#41=AXIS2_PLACEMENT_3D('',#38,#39,#40);
#43=CARTESIAN_POINT('',(-4.299346911097E1,0.E0,-4.707295443047E1));
#44=DIRECTION('',(0.E0,-1.E0,0.E0));
#45=DIRECTION('',(1.E0,0.E0,0.E0));
#46=AXIS2_PLACEMENT_3D('',#43,#44,#45);
#48=CARTESIAN_POINT('',(6.95E1,0.E0,4.7E1));
#49=DIRECTION('',(0.E0,-1.E0,0.E0));
#50=DIRECTION('',(-1.E0,0.E0,0.E0));
#51=AXIS2_PLACEMENT_3D('',#48,#49,#50);
#53=CARTESIAN_POINT('',(6.95E1,0.E0,4.7E1));
#54=DIRECTION('',(0.E0,-1.E0,0.E0));
#55=DIRECTION('',(1.E0,0.E0,0.E0));
#56=AXIS2_PLACEMENT_3D('',#53,#54,#55);
#58=CARTESIAN_POINT('',(-6.95E1,0.E0,4.7E1));
#59=DIRECTION('',(0.E0,-1.E0,0.E0));
#60=DIRECTION('',(-1.E0,0.E0,0.E0));
#61=AXIS2_PLACEMENT_3D('',#58,#59,#60);
#63=CARTESIAN_POINT('',(-6.95E1,0.E0,4.7E1));
#64=DIRECTION('',(0.E0,-1.E0,0.E0));
#65=DIRECTION('',(1.E0,0.E0,0.E0));
#66=AXIS2_PLACEMENT_3D('',#63,#64,#65);
#68=DIRECTION('',(0.E0,1.E0,0.E0));
#69=VECTOR('',#68,2.E0);
#70=CARTESIAN_POINT('',(-7.18E1,0.E0,4.93E1));
#71=LINE('',#70,#69);
#72=DIRECTION('',(0.E0,1.E0,0.E0));
#73=VECTOR('',#72,2.E0);
#74=CARTESIAN_POINT('',(-7.18E1,0.E0,-2.75E1));
#75=LINE('',#74,#73);
#76=DIRECTION('',(0.E0,1.E0,0.E0));
#77=VECTOR('',#76,2.E0);
#78=CARTESIAN_POINT('',(-5.E1,0.E0,-4.93E1));
#79=LINE('',#78,#77);
#80=DIRECTION('',(0.E0,1.E0,0.E0));
#81=VECTOR('',#80,2.E0);
#82=CARTESIAN_POINT('',(5.E1,0.E0,-4.93E1));
#83=LINE('',#82,#81);
#84=DIRECTION('',(0.E0,1.E0,0.E0));
#85=VECTOR('',#84,2.E0);
#86=CARTESIAN_POINT('',(7.18E1,0.E0,-2.75E1));
#87=LINE('',#86,#85);
#88=DIRECTION('',(0.E0,1.E0,0.E0));
#89=VECTOR('',#88,2.E0);
#90=CARTESIAN_POINT('',(7.18E1,0.E0,4.93E1));
#91=LINE('',#90,#89);
#92=DIRECTION('',(1.E0,0.E0,0.E0));
#93=VECTOR('',#92,1.436E2);
#94=CARTESIAN_POINT('',(-7.18E1,2.E0,4.93E1));
#95=LINE('',#94,#93);
#96=DIRECTION('',(0.E0,0.E0,1.E0));
#97=VECTOR('',#96,7.68E1);
#98=CARTESIAN_POINT('',(-7.18E1,2.E0,-2.75E1));
#99=LINE('',#98,#97);
#100=CARTESIAN_POINT('',(-5.E1,2.E0,-2.75E1));
#101=DIRECTION('',(0.E0,1.E0,0.E0));
#102=DIRECTION('',(0.E0,0.E0,-1.E0));
#103=AXIS2_PLACEMENT_3D('',#100,#101,#102);
#105=DIRECTION('',(-1.E0,0.E0,0.E0));
#106=VECTOR('',#105,1.E2);
#107=CARTESIAN_POINT('',(5.E1,2.E0,-4.93E1));
#108=LINE('',#107,#106);
#109=CARTESIAN_POINT('',(5.E1,2.E0,-2.75E1));
#110=DIRECTION('',(0.E0,1.E0,0.E0));
#111=DIRECTION('',(1.E0,0.E0,0.E0));
#112=AXIS2_PLACEMENT_3D('',#109,#110,#111);
#114=DIRECTION('',(0.E0,0.E0,-1.E0));
#115=VECTOR('',#114,7.68E1);
#116=CARTESIAN_POINT('',(7.18E1,2.E0,4.93E1));
#117=LINE('',#116,#115);
#118=CARTESIAN_POINT('',(4.299346911097E1,2.E0,-4.707295443047E1));
#119=DIRECTION('',(0.E0,-1.E0,0.E0));
#120=DIRECTION('',(-1.E0,0.E0,0.E0));
#121=AXIS2_PLACEMENT_3D('',#118,#119,#120);
#123=CARTESIAN_POINT('',(4.299346911097E1,2.E0,-4.707295443047E1));
#124=DIRECTION('',(0.E0,-1.E0,0.E0));
#125=DIRECTION('',(1.E0,0.E0,0.E0));
#126=AXIS2_PLACEMENT_3D('',#123,#124,#125);
#128=CARTESIAN_POINT('',(-4.299346911097E1,2.E0,-4.707295443047E1));
#129=DIRECTION('',(0.E0,-1.E0,0.E0));
#130=DIRECTION('',(-1.E0,0.E0,0.E0));
#131=AXIS2_PLACEMENT_3D('',#128,#129,#130);
#133=CARTESIAN_POINT('',(-4.299346911097E1,2.E0,-4.707295443047E1));
#134=DIRECTION('',(0.E0,-1.E0,0.E0));
#135=DIRECTION('',(1.E0,0.E0,0.E0));
#136=AXIS2_PLACEMENT_3D('',#133,#134,#135);
#138=CARTESIAN_POINT('',(6.95E1,2.E0,4.7E1));
#139=DIRECTION('',(0.E0,-1.E0,0.E0));
#140=DIRECTION('',(-1.E0,0.E0,0.E0));
#141=AXIS2_PLACEMENT_3D('',#138,#139,#140);
#143=CARTESIAN_POINT('',(6.95E1,2.E0,4.7E1));
#144=DIRECTION('',(0.E0,-1.E0,0.E0));
#145=DIRECTION('',(1.E0,0.E0,0.E0));
#146=AXIS2_PLACEMENT_3D('',#143,#144,#145);
#148=CARTESIAN_POINT('',(-6.95E1,2.E0,4.7E1));
#149=DIRECTION('',(0.E0,-1.E0,0.E0));
#150=DIRECTION('',(-1.E0,0.E0,0.E0));
#151=AXIS2_PLACEMENT_3D('',#148,#149,#150);
#153=CARTESIAN_POINT('',(-6.95E1,2.E0,4.7E1));
#154=DIRECTION('',(0.E0,-1.E0,0.E0));
#155=DIRECTION('',(1.E0,0.E0,0.E0));
#156=AXIS2_PLACEMENT_3D('',#153,#154,#155);
#158=DIRECTION('',(0.E0,1.E0,0.E0));
#159=VECTOR('',#158,2.E0);
#160=CARTESIAN_POINT('',(4.199346911097E1,0.E0,-4.707295443047E1));
#161=LINE('',#160,#159);
#162=DIRECTION('',(0.E0,1.E0,0.E0));
#163=VECTOR('',#162,2.E0);
#164=CARTESIAN_POINT('',(4.399346911097E1,0.E0,-4.707295443047E1));
#165=LINE('',#164,#163);
#166=DIRECTION('',(0.E0,1.E0,0.E0));
#167=VECTOR('',#166,2.E0);
#168=CARTESIAN_POINT('',(-4.399346911097E1,0.E0,-4.707295443047E1));
#169=LINE('',#168,#167);
#170=DIRECTION('',(0.E0,1.E0,0.E0));
#171=VECTOR('',#170,2.E0);
#172=CARTESIAN_POINT('',(-4.199346911097E1,0.E0,-4.707295443047E1));
#173=LINE('',#172,#171);
#174=DIRECTION('',(0.E0,1.E0,0.E0));
#175=VECTOR('',#174,2.E0);
#176=CARTESIAN_POINT('',(6.85E1,0.E0,4.7E1));
#177=LINE('',#176,#175);
#178=DIRECTION('',(0.E0,1.E0,0.E0));
#179=VECTOR('',#178,2.E0);
#180=CARTESIAN_POINT('',(7.05E1,0.E0,4.7E1));
#181=LINE('',#180,#179);
#182=DIRECTION('',(0.E0,1.E0,0.E0));
#183=VECTOR('',#182,2.E0);
#184=CARTESIAN_POINT('',(-7.05E1,0.E0,4.7E1));
#185=LINE('',#184,#183);
#186=DIRECTION('',(0.E0,1.E0,0.E0));
#187=VECTOR('',#186,2.E0);
#188=CARTESIAN_POINT('',(-6.85E1,0.E0,4.7E1));
#189=LINE('',#188,#187);
#190=CARTESIAN_POINT('',(-7.18E1,0.E0,4.93E1));
#191=CARTESIAN_POINT('',(7.18E1,0.E0,4.93E1));
#192=VERTEX_POINT('',#190);
#193=VERTEX_POINT('',#191);
#194=CARTESIAN_POINT('',(7.18E1,0.E0,-2.75E1));
#195=VERTEX_POINT('',#194);
#196=CARTESIAN_POINT('',(5.E1,0.E0,-4.93E1));
#197=VERTEX_POINT('',#196);
#198=CARTESIAN_POINT('',(-5.E1,0.E0,-4.93E1));
#199=VERTEX_POINT('',#198);
#200=CARTESIAN_POINT('',(-7.18E1,0.E0,-2.75E1));
#201=VERTEX_POINT('',#200);
#202=CARTESIAN_POINT('',(-7.18E1,2.E0,4.93E1));
#203=CARTESIAN_POINT('',(7.18E1,2.E0,4.93E1));
#204=VERTEX_POINT('',#202);
#205=VERTEX_POINT('',#203);
#206=CARTESIAN_POINT('',(7.18E1,2.E0,-2.75E1));
#207=VERTEX_POINT('',#206);
#208=CARTESIAN_POINT('',(5.E1,2.E0,-4.93E1));
#209=VERTEX_POINT('',#208);
#210=CARTESIAN_POINT('',(-5.E1,2.E0,-4.93E1));
#211=VERTEX_POINT('',#210);
#212=CARTESIAN_POINT('',(-7.18E1,2.E0,-2.75E1));
#213=VERTEX_POINT('',#212);
#214=CARTESIAN_POINT('',(4.199346911097E1,0.E0,-4.707295443047E1));
#215=CARTESIAN_POINT('',(4.399346911097E1,0.E0,-4.707295443047E1));
#216=VERTEX_POINT('',#214);
#217=VERTEX_POINT('',#215);
#218=CARTESIAN_POINT('',(-4.399346911097E1,0.E0,-4.707295443047E1));
#219=CARTESIAN_POINT('',(-4.199346911097E1,0.E0,-4.707295443047E1));
#220=VERTEX_POINT('',#218);
#221=VERTEX_POINT('',#219);
#222=CARTESIAN_POINT('',(6.85E1,0.E0,4.7E1));
#223=CARTESIAN_POINT('',(7.05E1,0.E0,4.7E1));
#224=VERTEX_POINT('',#222);
#225=VERTEX_POINT('',#223);
#226=CARTESIAN_POINT('',(-7.05E1,0.E0,4.7E1));
#227=CARTESIAN_POINT('',(-6.85E1,0.E0,4.7E1));
#228=VERTEX_POINT('',#226);
#229=VERTEX_POINT('',#227);
#230=CARTESIAN_POINT('',(4.199346911097E1,2.E0,-4.707295443047E1));
#231=CARTESIAN_POINT('',(4.399346911097E1,2.E0,-4.707295443047E1));
#232=VERTEX_POINT('',#230);
#233=VERTEX_POINT('',#231);
#234=CARTESIAN_POINT('',(-4.399346911097E1,2.E0,-4.707295443047E1));
#235=CARTESIAN_POINT('',(-4.199346911097E1,2.E0,-4.707295443047E1));
#236=VERTEX_POINT('',#234);
#237=VERTEX_POINT('',#235);
#238=CARTESIAN_POINT('',(6.85E1,2.E0,4.7E1));
#239=CARTESIAN_POINT('',(7.05E1,2.E0,4.7E1));
#240=VERTEX_POINT('',#238);
#241=VERTEX_POINT('',#239);
#242=CARTESIAN_POINT('',(-7.05E1,2.E0,4.7E1));
#243=CARTESIAN_POINT('',(-6.85E1,2.E0,4.7E1));
#244=VERTEX_POINT('',#242);
#245=VERTEX_POINT('',#243);
#246=CARTESIAN_POINT('',(0.E0,0.E0,0.E0));
#247=DIRECTION('',(0.E0,1.E0,0.E0));
#248=DIRECTION('',(0.E0,0.E0,1.E0));
#249=AXIS2_PLACEMENT_3D('',#246,#247,#248);
#250=PLANE('',#249);
#252=ORIENTED_EDGE('',*,*,#251,.T.);
#254=ORIENTED_EDGE('',*,*,#253,.T.);
#256=ORIENTED_EDGE('',*,*,#255,.T.);
#258=ORIENTED_EDGE('',*,*,#257,.T.);
#260=ORIENTED_EDGE('',*,*,#259,.T.);
#262=ORIENTED_EDGE('',*,*,#261,.T.);
#263=EDGE_LOOP('',(#252,#254,#256,#258,#260,#262));
#264=FACE_OUTER_BOUND('',#263,.F.);
#266=ORIENTED_EDGE('',*,*,#265,.T.);
#268=ORIENTED_EDGE('',*,*,#267,.T.);
#269=EDGE_LOOP('',(#266,#268));
#270=FACE_BOUND('',#269,.F.);
#272=ORIENTED_EDGE('',*,*,#271,.T.);
#274=ORIENTED_EDGE('',*,*,#273,.T.);
#275=EDGE_LOOP('',(#272,#274));
#276=FACE_BOUND('',#275,.F.);
#278=ORIENTED_EDGE('',*,*,#277,.T.);
#280=ORIENTED_EDGE('',*,*,#279,.T.);
#281=EDGE_LOOP('',(#278,#280));
#282=FACE_BOUND('',#281,.F.);
#284=ORIENTED_EDGE('',*,*,#283,.T.);
#286=ORIENTED_EDGE('',*,*,#285,.T.);
#287=EDGE_LOOP('',(#284,#286));
#288=FACE_BOUND('',#287,.F.);
#289=ADVANCED_FACE('',(#264,#270,#276,#282,#288),#250,.F.);
#290=CARTESIAN_POINT('',(-7.18E1,0.E0,4.93E1));
#291=DIRECTION('',(0.E0,0.E0,1.E0));
#292=DIRECTION('',(1.E0,0.E0,0.E0));
#293=AXIS2_PLACEMENT_3D('',#290,#291,#292);
#294=PLANE('',#293);
#295=ORIENTED_EDGE('',*,*,#251,.F.);
#297=ORIENTED_EDGE('',*,*,#296,.T.);
#299=ORIENTED_EDGE('',*,*,#298,.T.);
#301=ORIENTED_EDGE('',*,*,#300,.F.);
#302=EDGE_LOOP('',(#295,#297,#299,#301));
#303=FACE_OUTER_BOUND('',#302,.F.);
#304=ADVANCED_FACE('',(#303),#294,.T.);
#305=CARTESIAN_POINT('',(-7.18E1,0.E0,-2.75E1));
#306=DIRECTION('',(-1.E0,0.E0,0.E0));
#307=DIRECTION('',(0.E0,0.E0,1.E0));
#308=AXIS2_PLACEMENT_3D('',#305,#306,#307);
#309=PLANE('',#308);
#310=ORIENTED_EDGE('',*,*,#261,.F.);
#312=ORIENTED_EDGE('',*,*,#311,.T.);
#314=ORIENTED_EDGE('',*,*,#313,.T.);
#315=ORIENTED_EDGE('',*,*,#296,.F.);
#316=EDGE_LOOP('',(#310,#312,#314,#315));
#317=FACE_OUTER_BOUND('',#316,.F.);
#318=ADVANCED_FACE('',(#317),#309,.T.);
#319=CARTESIAN_POINT('',(-5.E1,0.E0,-2.75E1));
#320=DIRECTION('',(0.E0,1.E0,0.E0));
#321=DIRECTION('',(0.E0,0.E0,1.E0));
#322=AXIS2_PLACEMENT_3D('',#319,#320,#321);
#323=CYLINDRICAL_SURFACE('',#322,2.18E1);
#324=ORIENTED_EDGE('',*,*,#259,.F.);
#326=ORIENTED_EDGE('',*,*,#325,.T.);
#328=ORIENTED_EDGE('',*,*,#327,.T.);
#329=ORIENTED_EDGE('',*,*,#311,.F.);
#330=EDGE_LOOP('',(#324,#326,#328,#329));
#331=FACE_OUTER_BOUND('',#330,.F.);
#332=ADVANCED_FACE('',(#331),#323,.T.);
#333=CARTESIAN_POINT('',(5.E1,0.E0,-4.93E1));
#334=DIRECTION('',(0.E0,0.E0,-1.E0));
#335=DIRECTION('',(-1.E0,0.E0,0.E0));
#336=AXIS2_PLACEMENT_3D('',#333,#334,#335);
#337=PLANE('',#336);
#338=ORIENTED_EDGE('',*,*,#257,.F.);
#340=ORIENTED_EDGE('',*,*,#339,.T.);
#342=ORIENTED_EDGE('',*,*,#341,.T.);
#343=ORIENTED_EDGE('',*,*,#325,.F.);
#344=EDGE_LOOP('',(#338,#340,#342,#343));
#345=FACE_OUTER_BOUND('',#344,.F.);
#346=ADVANCED_FACE('',(#345),#337,.T.);
#347=CARTESIAN_POINT('',(5.E1,0.E0,-2.75E1));
#348=DIRECTION('',(0.E0,1.E0,0.E0));
#349=DIRECTION('',(0.E0,0.E0,1.E0));
#350=AXIS2_PLACEMENT_3D('',#347,#348,#349);
#351=CYLINDRICAL_SURFACE('',#350,2.18E1);
#352=ORIENTED_EDGE('',*,*,#255,.F.);
#354=ORIENTED_EDGE('',*,*,#353,.T.);
#356=ORIENTED_EDGE('',*,*,#355,.T.);
#357=ORIENTED_EDGE('',*,*,#339,.F.);
#358=EDGE_LOOP('',(#352,#354,#356,#357));
#359=FACE_OUTER_BOUND('',#358,.F.);
#360=ADVANCED_FACE('',(#359),#351,.T.);
#361=CARTESIAN_POINT('',(7.18E1,0.E0,4.93E1));
#362=DIRECTION('',(1.E0,0.E0,0.E0));
#363=DIRECTION('',(0.E0,0.E0,-1.E0));
#364=AXIS2_PLACEMENT_3D('',#361,#362,#363);
#365=PLANE('',#364);
#366=ORIENTED_EDGE('',*,*,#253,.F.);
#367=ORIENTED_EDGE('',*,*,#300,.T.);
#369=ORIENTED_EDGE('',*,*,#368,.T.);
#370=ORIENTED_EDGE('',*,*,#353,.F.);
#371=EDGE_LOOP('',(#366,#367,#369,#370));
#372=FACE_OUTER_BOUND('',#371,.F.);
#373=ADVANCED_FACE('',(#372),#365,.T.);
#374=CARTESIAN_POINT('',(0.E0,2.E0,0.E0));
#375=DIRECTION('',(0.E0,1.E0,0.E0));
#376=DIRECTION('',(0.E0,0.E0,1.E0));
#377=AXIS2_PLACEMENT_3D('',#374,#375,#376);
#378=PLANE('',#377);
#379=ORIENTED_EDGE('',*,*,#298,.F.);
#380=ORIENTED_EDGE('',*,*,#313,.F.);
#381=ORIENTED_EDGE('',*,*,#327,.F.);
#382=ORIENTED_EDGE('',*,*,#341,.F.);
#383=ORIENTED_EDGE('',*,*,#355,.F.);
#384=ORIENTED_EDGE('',*,*,#368,.F.);
#385=EDGE_LOOP('',(#379,#380,#381,#382,#383,#384));
#386=FACE_OUTER_BOUND('',#385,.F.);
#388=ORIENTED_EDGE('',*,*,#387,.F.);
#390=ORIENTED_EDGE('',*,*,#389,.F.);
#391=EDGE_LOOP('',(#388,#390));
#392=FACE_BOUND('',#391,.F.);
#394=ORIENTED_EDGE('',*,*,#393,.F.);
#396=ORIENTED_EDGE('',*,*,#395,.F.);
#397=EDGE_LOOP('',(#394,#396));
#398=FACE_BOUND('',#397,.F.);
#400=ORIENTED_EDGE('',*,*,#399,.F.);
#402=ORIENTED_EDGE('',*,*,#401,.F.);
#403=EDGE_LOOP('',(#400,#402));
#404=FACE_BOUND('',#403,.F.);
#406=ORIENTED_EDGE('',*,*,#405,.F.);
#408=ORIENTED_EDGE('',*,*,#407,.F.);
#409=EDGE_LOOP('',(#406,#408));
#410=FACE_BOUND('',#409,.F.);
#411=ADVANCED_FACE('',(#386,#392,#398,#404,#410),#378,.T.);
#412=CARTESIAN_POINT('',(4.299346911097E1,0.E0,-4.707295443047E1));
#413=DIRECTION('',(0.E0,-1.E0,0.E0));
#414=DIRECTION('',(-1.E0,0.E0,0.E0));
#415=AXIS2_PLACEMENT_3D('',#412,#413,#414);
#416=CYLINDRICAL_SURFACE('',#415,1.E0);
#417=ORIENTED_EDGE('',*,*,#265,.F.);
#419=ORIENTED_EDGE('',*,*,#418,.T.);
#420=ORIENTED_EDGE('',*,*,#387,.T.);
#422=ORIENTED_EDGE('',*,*,#421,.F.);
#423=EDGE_LOOP('',(#417,#419,#420,#422));
#424=FACE_OUTER_BOUND('',#423,.F.);
#425=ADVANCED_FACE('',(#424),#416,.F.);
#426=CARTESIAN_POINT('',(4.299346911097E1,0.E0,-4.707295443047E1));
#427=DIRECTION('',(0.E0,-1.E0,0.E0));
#428=DIRECTION('',(-1.E0,0.E0,0.E0));
#429=AXIS2_PLACEMENT_3D('',#426,#427,#428);
#430=CYLINDRICAL_SURFACE('',#429,1.E0);
#431=ORIENTED_EDGE('',*,*,#267,.F.);
#432=ORIENTED_EDGE('',*,*,#421,.T.);
#433=ORIENTED_EDGE('',*,*,#389,.T.);
#434=ORIENTED_EDGE('',*,*,#418,.F.);
#435=EDGE_LOOP('',(#431,#432,#433,#434));
#436=FACE_OUTER_BOUND('',#435,.F.);
#437=ADVANCED_FACE('',(#436),#430,.F.);
#438=CARTESIAN_POINT('',(-4.299346911097E1,0.E0,-4.707295443047E1));
#439=DIRECTION('',(0.E0,-1.E0,0.E0));
#440=DIRECTION('',(-1.E0,0.E0,0.E0));
#441=AXIS2_PLACEMENT_3D('',#438,#439,#440);
#442=CYLINDRICAL_SURFACE('',#441,1.E0);
#443=ORIENTED_EDGE('',*,*,#271,.F.);
#445=ORIENTED_EDGE('',*,*,#444,.T.);
#446=ORIENTED_EDGE('',*,*,#393,.T.);
#448=ORIENTED_EDGE('',*,*,#447,.F.);
#449=EDGE_LOOP('',(#443,#445,#446,#448));
#450=FACE_OUTER_BOUND('',#449,.F.);
#451=ADVANCED_FACE('',(#450),#442,.F.);
#452=CARTESIAN_POINT('',(-4.299346911097E1,0.E0,-4.707295443047E1));
#453=DIRECTION('',(0.E0,-1.E0,0.E0));
#454=DIRECTION('',(-1.E0,0.E0,0.E0));
#455=AXIS2_PLACEMENT_3D('',#452,#453,#454);
#456=CYLINDRICAL_SURFACE('',#455,1.E0);
#457=ORIENTED_EDGE('',*,*,#273,.F.);
#458=ORIENTED_EDGE('',*,*,#447,.T.);
#459=ORIENTED_EDGE('',*,*,#395,.T.);
#460=ORIENTED_EDGE('',*,*,#444,.F.);
#461=EDGE_LOOP('',(#457,#458,#459,#460));
#462=FACE_OUTER_BOUND('',#461,.F.);
#463=ADVANCED_FACE('',(#462),#456,.F.);
#464=CARTESIAN_POINT('',(6.95E1,0.E0,4.7E1));
#465=DIRECTION('',(0.E0,-1.E0,0.E0));
#466=DIRECTION('',(-1.E0,0.E0,0.E0));
#467=AXIS2_PLACEMENT_3D('',#464,#465,#466);
#468=CYLINDRICAL_SURFACE('',#467,1.E0);
#469=ORIENTED_EDGE('',*,*,#277,.F.);
#471=ORIENTED_EDGE('',*,*,#470,.T.);
#472=ORIENTED_EDGE('',*,*,#399,.T.);
#474=ORIENTED_EDGE('',*,*,#473,.F.);
#475=EDGE_LOOP('',(#469,#471,#472,#474));
#476=FACE_OUTER_BOUND('',#475,.F.);
#477=ADVANCED_FACE('',(#476),#468,.F.);
#478=CARTESIAN_POINT('',(6.95E1,0.E0,4.7E1));
#479=DIRECTION('',(0.E0,-1.E0,0.E0));
#480=DIRECTION('',(-1.E0,0.E0,0.E0));
#481=AXIS2_PLACEMENT_3D('',#478,#479,#480);
#482=CYLINDRICAL_SURFACE('',#481,1.E0);
#483=ORIENTED_EDGE('',*,*,#279,.F.);
#484=ORIENTED_EDGE('',*,*,#473,.T.);
#485=ORIENTED_EDGE('',*,*,#401,.T.);
#486=ORIENTED_EDGE('',*,*,#470,.F.);
#487=EDGE_LOOP('',(#483,#484,#485,#486));
#488=FACE_OUTER_BOUND('',#487,.F.);
#489=ADVANCED_FACE('',(#488),#482,.F.);
#490=CARTESIAN_POINT('',(-6.95E1,0.E0,4.7E1));
#491=DIRECTION('',(0.E0,-1.E0,0.E0));
#492=DIRECTION('',(-1.E0,0.E0,0.E0));
#493=AXIS2_PLACEMENT_3D('',#490,#491,#492);
#494=CYLINDRICAL_SURFACE('',#493,1.E0);
#495=ORIENTED_EDGE('',*,*,#283,.F.);
#497=ORIENTED_EDGE('',*,*,#496,.T.);
#498=ORIENTED_EDGE('',*,*,#405,.T.);
#500=ORIENTED_EDGE('',*,*,#499,.F.);
#501=EDGE_LOOP('',(#495,#497,#498,#500));
#502=FACE_OUTER_BOUND('',#501,.F.);
#503=ADVANCED_FACE('',(#502),#494,.F.);
#504=CARTESIAN_POINT('',(-6.95E1,0.E0,4.7E1));
#505=DIRECTION('',(0.E0,-1.E0,0.E0));
#506=DIRECTION('',(-1.E0,0.E0,0.E0));
#507=AXIS2_PLACEMENT_3D('',#504,#505,#506);
#508=CYLINDRICAL_SURFACE('',#507,1.E0);
#509=ORIENTED_EDGE('',*,*,#285,.F.);
#510=ORIENTED_EDGE('',*,*,#499,.T.);
#511=ORIENTED_EDGE('',*,*,#407,.T.);
#512=ORIENTED_EDGE('',*,*,#496,.F.);
#513=EDGE_LOOP('',(#509,#510,#511,#512));
#514=FACE_OUTER_BOUND('',#513,.F.);
#515=ADVANCED_FACE('',(#514),#508,.F.);
#519=DIMENSIONAL_EXPONENTS(0.E0,0.E0,0.E0,0.E0,0.E0,0.E0,0.E0);
#521=PLANE_ANGLE_MEASURE_WITH_UNIT(PLANE_ANGLE_MEASURE(1.745329251994E-2),#520);
#522=(CONVERSION_BASED_UNIT('DEGREE',#521)NAMED_UNIT(*)PLANE_ANGLE_UNIT());
#524=UNCERTAINTY_MEASURE_WITH_UNIT(LENGTH_MEASURE(1.741967057523E-2),#518,
'closure',
'Maximum model space distance between geometric entities at asserted connectivities');
#525=(GEOMETRIC_REPRESENTATION_CONTEXT(3)GLOBAL_UNCERTAINTY_ASSIGNED_CONTEXT((
#524))GLOBAL_UNIT_ASSIGNED_CONTEXT((#518,#522,#523))REPRESENTATION_CONTEXT
('ID1','3'));
#527=APPLICATION_CONTEXT(
'CONFIGURATION CONTROLLED 3D DESIGNS OF MECHANICAL PARTS AND ASSEMBLIES');
#528=APPLICATION_PROTOCOL_DEFINITION('international standard',
'config_control_design',1994,#527);
#529=DESIGN_CONTEXT('',#527,'design');
#530=MECHANICAL_CONTEXT('',#527,'mechanical');
#531=PRODUCT('CAP','CAP','NOT SPECIFIED',(#530));
#532=PRODUCT_DEFINITION_FORMATION_WITH_SPECIFIED_SOURCE('6','LAST_VERSION',#531,
.MADE.);
#536=PRODUCT_CATEGORY('part','');
#537=PRODUCT_RELATED_PRODUCT_CATEGORY('detail','',(#531));
#538=PRODUCT_CATEGORY_RELATIONSHIP('','',#536,#537);
#539=SECURITY_CLASSIFICATION_LEVEL('unclassified');
#540=SECURITY_CLASSIFICATION('','',#539);
#541=CC_DESIGN_SECURITY_CLASSIFICATION(#540,(#532));
#542=APPROVAL_STATUS('approved');
#543=APPROVAL(#542,'');
#544=CC_DESIGN_APPROVAL(#543,(#540,#532,#533));
#545=CALENDAR_DATE(124,8,11);
#546=COORDINATED_UNIVERSAL_TIME_OFFSET(1,0,.AHEAD.);
#547=LOCAL_TIME(9,34,5.7E1,#546);
#548=DATE_AND_TIME(#545,#547);
#549=APPROVAL_DATE_TIME(#548,#543);
#550=DATE_TIME_ROLE('creation_date');
#551=CC_DESIGN_DATE_AND_TIME_ASSIGNMENT(#548,#550,(#533));
#552=DATE_TIME_ROLE('classification_date');
#553=CC_DESIGN_DATE_AND_TIME_ASSIGNMENT(#548,#552,(#540));
#554=PERSON('UNSPECIFIED','UNSPECIFIED',$,$,$,$);
#555=ORGANIZATION('UNSPECIFIED','UNSPECIFIED','UNSPECIFIED');
#556=PERSON_AND_ORGANIZATION(#554,#555);
#557=APPROVAL_ROLE('approver');
#558=APPROVAL_PERSON_ORGANIZATION(#556,#543,#557);
#559=PERSON_AND_ORGANIZATION_ROLE('creator');
#560=CC_DESIGN_PERSON_AND_ORGANIZATION_ASSIGNMENT(#556,#559,(#532,#533));
#561=PERSON_AND_ORGANIZATION_ROLE('design_supplier');
#562=CC_DESIGN_PERSON_AND_ORGANIZATION_ASSIGNMENT(#556,#561,(#532));
#563=PERSON_AND_ORGANIZATION_ROLE('classification_officer');
#564=CC_DESIGN_PERSON_AND_ORGANIZATION_ASSIGNMENT(#556,#563,(#540));
#565=PERSON_AND_ORGANIZATION_ROLE('design_owner');
#566=CC_DESIGN_PERSON_AND_ORGANIZATION_ASSIGNMENT(#556,#565,(#531));
#14=CIRCLE('',#13,2.18E1);
#23=CIRCLE('',#22,2.18E1);
#32=CIRCLE('',#31,1.E0);
#37=CIRCLE('',#36,1.E0);
#42=CIRCLE('',#41,1.E0);
#47=CIRCLE('',#46,1.E0);
#52=CIRCLE('',#51,1.E0);
#57=CIRCLE('',#56,1.E0);
#62=CIRCLE('',#61,1.E0);
#67=CIRCLE('',#66,1.E0);
#104=CIRCLE('',#103,2.18E1);
#113=CIRCLE('',#112,2.18E1);
#122=CIRCLE('',#121,1.E0);
#127=CIRCLE('',#126,1.E0);
#132=CIRCLE('',#131,1.E0);
#137=CIRCLE('',#136,1.E0);
#142=CIRCLE('',#141,1.E0);
#147=CIRCLE('',#146,1.E0);
#152=CIRCLE('',#151,1.E0);
#157=CIRCLE('',#156,1.E0);
#251=EDGE_CURVE('',#192,#193,#5,.T.);
#253=EDGE_CURVE('',#193,#195,#9,.T.);
#255=EDGE_CURVE('',#195,#197,#14,.T.);
#257=EDGE_CURVE('',#197,#199,#18,.T.);
#259=EDGE_CURVE('',#199,#201,#23,.T.);
#261=EDGE_CURVE('',#201,#192,#27,.T.);
#265=EDGE_CURVE('',#216,#217,#32,.T.);
#267=EDGE_CURVE('',#217,#216,#37,.T.);
#271=EDGE_CURVE('',#220,#221,#42,.T.);
#273=EDGE_CURVE('',#221,#220,#47,.T.);
#277=EDGE_CURVE('',#224,#225,#52,.T.);
#279=EDGE_CURVE('',#225,#224,#57,.T.);
#283=EDGE_CURVE('',#228,#229,#62,.T.);
#285=EDGE_CURVE('',#229,#228,#67,.T.);
#296=EDGE_CURVE('',#192,#204,#71,.T.);
#298=EDGE_CURVE('',#204,#205,#95,.T.);
#300=EDGE_CURVE('',#193,#205,#91,.T.);
#311=EDGE_CURVE('',#201,#213,#75,.T.);
#313=EDGE_CURVE('',#213,#204,#99,.T.);
#325=EDGE_CURVE('',#199,#211,#79,.T.);
#327=EDGE_CURVE('',#211,#213,#104,.T.);
#339=EDGE_CURVE('',#197,#209,#83,.T.);
#341=EDGE_CURVE('',#209,#211,#108,.T.);
#353=EDGE_CURVE('',#195,#207,#87,.T.);
#355=EDGE_CURVE('',#207,#209,#113,.T.);
#368=EDGE_CURVE('',#205,#207,#117,.T.);
#387=EDGE_CURVE('',#232,#233,#122,.T.);
#389=EDGE_CURVE('',#233,#232,#127,.T.);
#393=EDGE_CURVE('',#236,#237,#132,.T.);
#395=EDGE_CURVE('',#237,#236,#137,.T.);
#399=EDGE_CURVE('',#240,#241,#142,.T.);
#401=EDGE_CURVE('',#241,#240,#147,.T.);
#405=EDGE_CURVE('',#244,#245,#152,.T.);
#407=EDGE_CURVE('',#245,#244,#157,.T.);
#418=EDGE_CURVE('',#216,#232,#161,.T.);
#421=EDGE_CURVE('',#217,#233,#165,.T.);
#444=EDGE_CURVE('',#220,#236,#169,.T.);
#447=EDGE_CURVE('',#221,#237,#173,.T.);
#470=EDGE_CURVE('',#224,#240,#177,.T.);
#473=EDGE_CURVE('',#225,#241,#181,.T.);
#496=EDGE_CURVE('',#228,#244,#185,.T.);
#499=EDGE_CURVE('',#229,#245,#189,.T.);
#516=CLOSED_SHELL('',(#289,#304,#318,#332,#346,#360,#373,#411,#425,#437,#451,
#463,#477,#489,#503,#515));
#517=MANIFOLD_SOLID_BREP('',#516);
#518=(LENGTH_UNIT()NAMED_UNIT(*)SI_UNIT(.MILLI.,.METRE.));
#520=(NAMED_UNIT(*)PLANE_ANGLE_UNIT()SI_UNIT($,.RADIAN.));
#523=(NAMED_UNIT(*)SI_UNIT($,.STERADIAN.)SOLID_ANGLE_UNIT());
#526=ADVANCED_BREP_SHAPE_REPRESENTATION('',(#517),#525);
#533=PRODUCT_DEFINITION('design','',#532,#529);
#534=PRODUCT_DEFINITION_SHAPE('','SHAPE FOR CAP.',#533);
#535=SHAPE_DEFINITION_REPRESENTATION(#534,#526);
ENDSEC;
END-ISO-10303-21;
