ISO-10303-21;
HEADER;
FILE_DESCRIPTION((''),'2;1');
FILE_NAME('LED_BUTTON_BASE','2024-11-08T11:38:18',('d.digloria'),(''),
'CREO PARAMETRIC BY PTC INC, 2020053','CREO PARAMETRIC BY PTC INC, 2020053','');
FILE_SCHEMA(('CONFIG_CONTROL_DESIGN'));
ENDSEC;
DATA;
#2=DIRECTION('',(0.E0,-1.E0,0.E0));
#3=VECTOR('',#2,1.22E1);
#4=CARTESIAN_POINT('',(0.E0,6.1E0,-6.1E0));
#5=LINE('',#4,#3);
#6=DIRECTION('',(0.E0,0.E0,1.E0));
#7=VECTOR('',#6,1.22E1);
#8=CARTESIAN_POINT('',(0.E0,-6.1E0,-6.1E0));
#9=LINE('',#8,#7);
#10=DIRECTION('',(0.E0,1.E0,0.E0));
#11=VECTOR('',#10,1.22E1);
#12=CARTESIAN_POINT('',(0.E0,-6.1E0,6.1E0));
#13=LINE('',#12,#11);
#14=DIRECTION('',(0.E0,0.E0,-1.E0));
#15=VECTOR('',#14,1.22E1);
#16=CARTESIAN_POINT('',(0.E0,6.1E0,6.1E0));
#17=LINE('',#16,#15);
#18=DIRECTION('',(0.E0,-7.071067811865E-1,-7.071067811865E-1));
#19=VECTOR('',#18,1.414213562373E0);
#20=CARTESIAN_POINT('',(0.E0,7.5E0,-6.5E0));
#21=LINE('',#20,#19);
#22=DIRECTION('',(0.E0,0.E0,1.E0));
#23=VECTOR('',#22,1.3E1);
#24=CARTESIAN_POINT('',(0.E0,7.5E0,-6.5E0));
#25=LINE('',#24,#23);
#26=DIRECTION('',(0.E0,7.071067811865E-1,-7.071067811865E-1));
#27=VECTOR('',#26,1.414213562373E0);
#28=CARTESIAN_POINT('',(0.E0,6.5E0,7.5E0));
#29=LINE('',#28,#27);
#30=DIRECTION('',(0.E0,-1.E0,0.E0));
#31=VECTOR('',#30,1.3E1);
#32=CARTESIAN_POINT('',(0.E0,6.5E0,7.5E0));
#33=LINE('',#32,#31);
#34=DIRECTION('',(0.E0,7.071067811865E-1,7.071067811865E-1));
#35=VECTOR('',#34,1.414213562373E0);
#36=CARTESIAN_POINT('',(0.E0,-7.5E0,6.5E0));
#37=LINE('',#36,#35);
#38=DIRECTION('',(0.E0,0.E0,-1.E0));
#39=VECTOR('',#38,1.3E1);
#40=CARTESIAN_POINT('',(0.E0,-7.5E0,6.5E0));
#41=LINE('',#40,#39);
#42=DIRECTION('',(0.E0,-7.071067811865E-1,7.071067811865E-1));
#43=VECTOR('',#42,1.414213562373E0);
#44=CARTESIAN_POINT('',(0.E0,-6.5E0,-7.5E0));
#45=LINE('',#44,#43);
#46=DIRECTION('',(0.E0,1.E0,0.E0));
#47=VECTOR('',#46,1.3E1);
#48=CARTESIAN_POINT('',(0.E0,-6.5E0,-7.5E0));
#49=LINE('',#48,#47);
#50=DIRECTION('',(1.E0,0.E0,0.E0));
#51=VECTOR('',#50,1.5E1);
#52=CARTESIAN_POINT('',(0.E0,6.1E0,-6.1E0));
#53=LINE('',#52,#51);
#54=DIRECTION('',(0.E0,0.E0,1.E0));
#55=VECTOR('',#54,5.5E0);
#56=CARTESIAN_POINT('',(1.05E1,6.1E0,-2.75E0));
#57=LINE('',#56,#55);
#58=DIRECTION('',(-1.E0,0.E0,0.E0));
#59=VECTOR('',#58,4.5E0);
#60=CARTESIAN_POINT('',(1.5E1,6.1E0,-2.75E0));
#61=LINE('',#60,#59);
#62=DIRECTION('',(1.E0,0.E0,0.E0));
#63=VECTOR('',#62,1.5E1);
#64=CARTESIAN_POINT('',(0.E0,6.1E0,6.1E0));
#65=LINE('',#64,#63);
#66=DIRECTION('',(-1.E0,0.E0,0.E0));
#67=VECTOR('',#66,4.5E0);
#68=CARTESIAN_POINT('',(1.5E1,6.1E0,2.75E0));
#69=LINE('',#68,#67);
#70=DIRECTION('',(0.E0,-1.E0,0.E0));
#71=VECTOR('',#70,1.4E0);
#72=CARTESIAN_POINT('',(1.05E1,7.5E0,-2.75E0));
#73=LINE('',#72,#71);
#74=DIRECTION('',(0.E0,-1.E0,0.E0));
#75=VECTOR('',#74,1.4E0);
#76=CARTESIAN_POINT('',(1.05E1,-6.1E0,-2.75E0));
#77=LINE('',#76,#75);
#78=DIRECTION('',(0.E0,0.E0,1.E0));
#79=VECTOR('',#78,5.5E0);
#80=CARTESIAN_POINT('',(1.05E1,7.5E0,-2.75E0));
#81=LINE('',#80,#79);
#82=DIRECTION('',(1.E0,0.E0,0.E0));
#83=VECTOR('',#82,5.5E0);
#84=CARTESIAN_POINT('',(1.05E1,7.5E0,2.75E0));
#85=LINE('',#84,#83);
#86=DIRECTION('',(0.E0,0.E0,-1.E0));
#87=VECTOR('',#86,5.5E0);
#88=CARTESIAN_POINT('',(1.6E1,7.5E0,2.75E0));
#89=LINE('',#88,#87);
#90=DIRECTION('',(-1.E0,0.E0,0.E0));
#91=VECTOR('',#90,5.5E0);
#92=CARTESIAN_POINT('',(1.6E1,7.5E0,-2.75E0));
#93=LINE('',#92,#91);
#94=DIRECTION('',(-1.E0,0.E0,0.E0));
#95=VECTOR('',#94,7.E0);
#96=CARTESIAN_POINT('',(7.E0,7.5E0,-6.5E0));
#97=LINE('',#96,#95);
#98=DIRECTION('',(0.E0,0.E0,1.E0));
#99=VECTOR('',#98,2.1E1);
#100=CARTESIAN_POINT('',(1.9E1,7.5E0,-1.05E1));
#101=LINE('',#100,#99);
#102=DIRECTION('',(-1.E0,0.E0,0.E0));
#103=VECTOR('',#102,7.E0);
#104=CARTESIAN_POINT('',(7.E0,7.5E0,6.5E0));
#105=LINE('',#104,#103);
#106=DIRECTION('',(0.E0,-1.E0,0.E0));
#107=VECTOR('',#106,1.4E0);
#108=CARTESIAN_POINT('',(1.05E1,7.5E0,2.75E0));
#109=LINE('',#108,#107);
#110=DIRECTION('',(0.E0,-1.E0,0.E0));
#111=VECTOR('',#110,1.4E0);
#112=CARTESIAN_POINT('',(1.05E1,-6.1E0,2.75E0));
#113=LINE('',#112,#111);
#114=DIRECTION('',(0.E0,-1.E0,0.E0));
#115=VECTOR('',#114,1.804944703499E0);
#116=CARTESIAN_POINT('',(1.5E1,6.1E0,2.75E0));
#117=LINE('',#116,#115);
#118=DIRECTION('',(0.E0,0.E0,-1.E0));
#119=VECTOR('',#118,3.35E0);
#120=CARTESIAN_POINT('',(1.5E1,6.1E0,6.1E0));
#121=LINE('',#120,#119);
#122=DIRECTION('',(0.E0,1.E0,0.E0));
#123=VECTOR('',#122,1.22E1);
#124=CARTESIAN_POINT('',(1.5E1,-6.1E0,6.1E0));
#125=LINE('',#124,#123);
#126=DIRECTION('',(0.E0,0.E0,1.E0));
#127=VECTOR('',#126,3.35E0);
#128=CARTESIAN_POINT('',(1.5E1,-6.1E0,2.75E0));
#129=LINE('',#128,#127);
#130=DIRECTION('',(0.E0,-1.E0,0.E0));
#131=VECTOR('',#130,1.804944703499E0);
#132=CARTESIAN_POINT('',(1.5E1,-4.295055296501E0,2.75E0));
#133=LINE('',#132,#131);
#134=DIRECTION('',(0.E0,-1.E0,0.E0));
#135=VECTOR('',#134,1.804944703499E0);
#136=CARTESIAN_POINT('',(1.5E1,6.1E0,-2.75E0));
#137=LINE('',#136,#135);
#138=DIRECTION('',(0.E0,-1.E0,0.E0));
#139=VECTOR('',#138,1.804944703499E0);
#140=CARTESIAN_POINT('',(1.5E1,-4.295055296501E0,-2.75E0));
#141=LINE('',#140,#139);
#142=DIRECTION('',(0.E0,0.E0,1.E0));
#143=VECTOR('',#142,3.35E0);
#144=CARTESIAN_POINT('',(1.5E1,-6.1E0,-6.1E0));
#145=LINE('',#144,#143);
#146=DIRECTION('',(0.E0,-1.E0,0.E0));
#147=VECTOR('',#146,1.22E1);
#148=CARTESIAN_POINT('',(1.5E1,6.1E0,-6.1E0));
#149=LINE('',#148,#147);
#150=DIRECTION('',(0.E0,0.E0,-1.E0));
#151=VECTOR('',#150,3.35E0);
#152=CARTESIAN_POINT('',(1.5E1,6.1E0,-2.75E0));
#153=LINE('',#152,#151);
#154=DIRECTION('',(1.E0,0.E0,0.E0));
#155=VECTOR('',#154,1.5E1);
#156=CARTESIAN_POINT('',(0.E0,-6.1E0,6.1E0));
#157=LINE('',#156,#155);
#158=DIRECTION('',(0.E0,0.E0,1.E0));
#159=VECTOR('',#158,5.5E0);
#160=CARTESIAN_POINT('',(1.05E1,-6.1E0,-2.75E0));
#161=LINE('',#160,#159);
#162=DIRECTION('',(-1.E0,0.E0,0.E0));
#163=VECTOR('',#162,4.5E0);
#164=CARTESIAN_POINT('',(1.5E1,-6.1E0,2.75E0));
#165=LINE('',#164,#163);
#166=DIRECTION('',(1.E0,0.E0,0.E0));
#167=VECTOR('',#166,1.5E1);
#168=CARTESIAN_POINT('',(0.E0,-6.1E0,-6.1E0));
#169=LINE('',#168,#167);
#170=DIRECTION('',(-1.E0,0.E0,0.E0));
#171=VECTOR('',#170,4.5E0);
#172=CARTESIAN_POINT('',(1.5E1,-6.1E0,-2.75E0));
#173=LINE('',#172,#171);
#174=DIRECTION('',(0.E0,-1.E0,0.E0));
#175=VECTOR('',#174,3.204944703499E0);
#176=CARTESIAN_POINT('',(1.6E1,7.5E0,-2.75E0));
#177=LINE('',#176,#175);
#178=DIRECTION('',(0.E0,-1.E0,0.E0));
#179=VECTOR('',#178,3.204944703499E0);
#180=CARTESIAN_POINT('',(1.6E1,-4.295055296501E0,-2.75E0));
#181=LINE('',#180,#179);
#182=DIRECTION('',(0.E0,-1.E0,0.E0));
#183=VECTOR('',#182,3.204944703499E0);
#184=CARTESIAN_POINT('',(1.6E1,7.5E0,2.75E0));
#185=LINE('',#184,#183);
#186=DIRECTION('',(0.E0,-1.E0,0.E0));
#187=VECTOR('',#186,3.204944703499E0);
#188=CARTESIAN_POINT('',(1.6E1,-4.295055296501E0,2.75E0));
#189=LINE('',#188,#187);
#190=DIRECTION('',(1.E0,0.E0,0.E0));
#191=VECTOR('',#190,1.E0);
#192=CARTESIAN_POINT('',(1.5E1,4.295055296501E0,2.75E0));
#193=LINE('',#192,#191);
#194=CARTESIAN_POINT('',(1.5E1,0.E0,0.E0));
#195=DIRECTION('',(1.E0,0.E0,0.E0));
#196=DIRECTION('',(0.E0,8.421677051962E-1,5.392156862745E-1));
#197=AXIS2_PLACEMENT_3D('',#194,#195,#196);
#199=DIRECTION('',(1.E0,0.E0,0.E0));
#200=VECTOR('',#199,1.E0);
#201=CARTESIAN_POINT('',(1.5E1,-4.295055296501E0,2.75E0));
#202=LINE('',#201,#200);
#203=CARTESIAN_POINT('',(1.6E1,0.E0,0.E0));
#204=DIRECTION('',(1.E0,0.E0,0.E0));
#205=DIRECTION('',(0.E0,-8.421677051962E-1,5.392156862745E-1));
#206=AXIS2_PLACEMENT_3D('',#203,#204,#205);
#208=DIRECTION('',(-1.E0,0.E0,0.E0));
#209=VECTOR('',#208,6.E0);
#210=CARTESIAN_POINT('',(2.2E1,5.1E0,0.E0));
#211=LINE('',#210,#209);
#212=CARTESIAN_POINT('',(1.6E1,0.E0,0.E0));
#213=DIRECTION('',(1.E0,0.E0,0.E0));
#214=DIRECTION('',(0.E0,1.E0,0.E0));
#215=AXIS2_PLACEMENT_3D('',#212,#213,#214);
#217=CARTESIAN_POINT('',(1.6E1,0.E0,0.E0));
#218=DIRECTION('',(1.E0,0.E0,0.E0));
#219=DIRECTION('',(0.E0,-1.E0,0.E0));
#220=AXIS2_PLACEMENT_3D('',#217,#218,#219);
#222=DIRECTION('',(1.E0,0.E0,0.E0));
#223=VECTOR('',#222,1.E0);
#224=CARTESIAN_POINT('',(1.5E1,-4.295055296501E0,-2.75E0));
#225=LINE('',#224,#223);
#226=CARTESIAN_POINT('',(1.5E1,0.E0,0.E0));
#227=DIRECTION('',(1.E0,0.E0,0.E0));
#228=DIRECTION('',(0.E0,-8.421677051962E-1,-5.392156862745E-1));
#229=AXIS2_PLACEMENT_3D('',#226,#227,#228);
#231=DIRECTION('',(1.E0,0.E0,0.E0));
#232=VECTOR('',#231,1.E0);
#233=CARTESIAN_POINT('',(1.5E1,4.295055296501E0,-2.75E0));
#234=LINE('',#233,#232);
#235=CARTESIAN_POINT('',(1.6E1,0.E0,0.E0));
#236=DIRECTION('',(1.E0,0.E0,0.E0));
#237=DIRECTION('',(0.E0,8.421677051962E-1,-5.392156862745E-1));
#238=AXIS2_PLACEMENT_3D('',#235,#236,#237);
#240=DIRECTION('',(-1.E0,0.E0,0.E0));
#241=VECTOR('',#240,6.E0);
#242=CARTESIAN_POINT('',(2.2E1,-5.1E0,0.E0));
#243=LINE('',#242,#241);
#244=CARTESIAN_POINT('',(2.2E1,0.E0,0.E0));
#245=DIRECTION('',(1.E0,0.E0,0.E0));
#246=DIRECTION('',(0.E0,-1.E0,0.E0));
#247=AXIS2_PLACEMENT_3D('',#244,#245,#246);
#249=CARTESIAN_POINT('',(2.2E1,0.E0,0.E0));
#250=DIRECTION('',(1.E0,0.E0,0.E0));
#251=DIRECTION('',(0.E0,1.E0,0.E0));
#252=AXIS2_PLACEMENT_3D('',#249,#250,#251);
#254=DIRECTION('',(0.E0,-1.E0,0.E0));
#255=VECTOR('',#254,2.3E1);
#256=CARTESIAN_POINT('',(2.2E1,1.15E1,-1.05E1));
#257=LINE('',#256,#255);
#258=DIRECTION('',(0.E0,1.E0,0.E0));
#259=VECTOR('',#258,2.3E1);
#260=CARTESIAN_POINT('',(2.2E1,-1.15E1,1.05E1));
#261=LINE('',#260,#259);
#262=DIRECTION('',(0.E0,0.E0,1.E0));
#263=VECTOR('',#262,2.1E1);
#264=CARTESIAN_POINT('',(2.2E1,1.15E1,-1.05E1));
#265=LINE('',#264,#263);
#266=DIRECTION('',(-1.E0,0.E0,0.E0));
#267=VECTOR('',#266,1.2E1);
#268=CARTESIAN_POINT('',(1.9E1,-7.5E0,-1.05E1));
#269=LINE('',#268,#267);
#270=DIRECTION('',(0.E0,1.E0,0.E0));
#271=VECTOR('',#270,4.E0);
#272=CARTESIAN_POINT('',(1.9E1,-1.15E1,-1.05E1));
#273=LINE('',#272,#271);
#274=DIRECTION('',(-1.E0,0.E0,0.E0));
#275=VECTOR('',#274,3.E0);
#276=CARTESIAN_POINT('',(2.2E1,-1.15E1,-1.05E1));
#277=LINE('',#276,#275);
#278=DIRECTION('',(1.E0,0.E0,0.E0));
#279=VECTOR('',#278,3.E0);
#280=CARTESIAN_POINT('',(1.9E1,1.15E1,-1.05E1));
#281=LINE('',#280,#279);
#282=DIRECTION('',(0.E0,1.E0,0.E0));
#283=VECTOR('',#282,4.E0);
#284=CARTESIAN_POINT('',(1.9E1,7.5E0,-1.05E1));
#285=LINE('',#284,#283);
#286=DIRECTION('',(1.E0,0.E0,0.E0));
#287=VECTOR('',#286,1.2E1);
#288=CARTESIAN_POINT('',(7.E0,7.5E0,-1.05E1));
#289=LINE('',#288,#287);
#290=DIRECTION('',(0.E0,1.E0,0.E0));
#291=VECTOR('',#290,1.5E1);
#292=CARTESIAN_POINT('',(7.E0,-7.5E0,-1.05E1));
#293=LINE('',#292,#291);
#294=DIRECTION('',(0.E0,0.E0,1.E0));
#295=VECTOR('',#294,5.5E0);
#296=CARTESIAN_POINT('',(1.05E1,-7.5E0,-2.75E0));
#297=LINE('',#296,#295);
#298=DIRECTION('',(-1.E0,0.E0,0.E0));
#299=VECTOR('',#298,5.5E0);
#300=CARTESIAN_POINT('',(1.6E1,-7.5E0,-2.75E0));
#301=LINE('',#300,#299);
#302=DIRECTION('',(0.E0,0.E0,-1.E0));
#303=VECTOR('',#302,5.5E0);
#304=CARTESIAN_POINT('',(1.6E1,-7.5E0,2.75E0));
#305=LINE('',#304,#303);
#306=DIRECTION('',(1.E0,0.E0,0.E0));
#307=VECTOR('',#306,5.5E0);
#308=CARTESIAN_POINT('',(1.05E1,-7.5E0,2.75E0));
#309=LINE('',#308,#307);
#310=DIRECTION('',(-1.E0,0.E0,0.E0));
#311=VECTOR('',#310,7.E0);
#312=CARTESIAN_POINT('',(7.E0,-7.5E0,-6.5E0));
#313=LINE('',#312,#311);
#314=DIRECTION('',(-1.E0,0.E0,0.E0));
#315=VECTOR('',#314,7.E0);
#316=CARTESIAN_POINT('',(7.E0,-7.5E0,6.5E0));
#317=LINE('',#316,#315);
#318=DIRECTION('',(0.E0,0.E0,-1.E0));
#319=VECTOR('',#318,2.1E1);
#320=CARTESIAN_POINT('',(1.9E1,-7.5E0,1.05E1));
#321=LINE('',#320,#319);
#322=DIRECTION('',(0.E0,7.071067811865E-1,-7.071067811865E-1));
#323=VECTOR('',#322,1.414213562373E0);
#324=CARTESIAN_POINT('',(7.E0,-7.5E0,-6.5E0));
#325=LINE('',#324,#323);
#326=DIRECTION('',(0.E0,0.E0,-1.E0));
#327=VECTOR('',#326,4.E0);
#328=CARTESIAN_POINT('',(7.E0,-7.5E0,-6.5E0));
#329=LINE('',#328,#327);
#330=DIRECTION('',(0.E0,0.E0,1.E0));
#331=VECTOR('',#330,4.E0);
#332=CARTESIAN_POINT('',(7.E0,7.5E0,-1.05E1));
#333=LINE('',#332,#331);
#334=DIRECTION('',(-1.E0,0.E0,0.E0));
#335=VECTOR('',#334,7.E0);
#336=CARTESIAN_POINT('',(7.E0,6.5E0,-7.5E0));
#337=LINE('',#336,#335);
#338=DIRECTION('',(-1.E0,0.E0,0.E0));
#339=VECTOR('',#338,7.E0);
#340=CARTESIAN_POINT('',(7.E0,-6.5E0,-7.5E0));
#341=LINE('',#340,#339);
#342=DIRECTION('',(0.E0,1.E0,0.E0));
#343=VECTOR('',#342,1.3E1);
#344=CARTESIAN_POINT('',(7.E0,-6.5E0,-7.5E0));
#345=LINE('',#344,#343);
#346=DIRECTION('',(0.E0,7.071067811865E-1,7.071067811865E-1));
#347=VECTOR('',#346,1.414213562373E0);
#348=CARTESIAN_POINT('',(7.E0,6.5E0,-7.5E0));
#349=LINE('',#348,#347);
#350=DIRECTION('',(0.E0,-7.071067811865E-1,-7.071067811865E-1));
#351=VECTOR('',#350,1.414213562373E0);
#352=CARTESIAN_POINT('',(7.E0,-6.5E0,7.5E0));
#353=LINE('',#352,#351);
#354=DIRECTION('',(-1.E0,0.E0,0.E0));
#355=VECTOR('',#354,7.E0);
#356=CARTESIAN_POINT('',(7.E0,6.5E0,7.5E0));
#357=LINE('',#356,#355);
#358=DIRECTION('',(0.E0,-1.E0,0.E0));
#359=VECTOR('',#358,1.3E1);
#360=CARTESIAN_POINT('',(7.E0,6.5E0,7.5E0));
#361=LINE('',#360,#359);
#362=DIRECTION('',(-1.E0,0.E0,0.E0));
#363=VECTOR('',#362,7.E0);
#364=CARTESIAN_POINT('',(7.E0,-6.5E0,7.5E0));
#365=LINE('',#364,#363);
#366=DIRECTION('',(0.E0,-7.071067811865E-1,7.071067811865E-1));
#367=VECTOR('',#366,1.414213562373E0);
#368=CARTESIAN_POINT('',(7.E0,7.5E0,6.5E0));
#369=LINE('',#368,#367);
#370=DIRECTION('',(0.E0,0.E0,-1.E0));
#371=VECTOR('',#370,4.E0);
#372=CARTESIAN_POINT('',(7.E0,-7.5E0,1.05E1));
#373=LINE('',#372,#371);
#374=DIRECTION('',(0.E0,0.E0,1.E0));
#375=VECTOR('',#374,4.E0);
#376=CARTESIAN_POINT('',(7.E0,7.5E0,6.5E0));
#377=LINE('',#376,#375);
#378=DIRECTION('',(-1.E0,0.E0,0.E0));
#379=VECTOR('',#378,3.E0);
#380=CARTESIAN_POINT('',(2.2E1,-1.15E1,1.05E1));
#381=LINE('',#380,#379);
#382=DIRECTION('',(0.E0,1.E0,0.E0));
#383=VECTOR('',#382,4.E0);
#384=CARTESIAN_POINT('',(1.9E1,-1.15E1,1.05E1));
#385=LINE('',#384,#383);
#386=DIRECTION('',(-1.E0,0.E0,0.E0));
#387=VECTOR('',#386,1.2E1);
#388=CARTESIAN_POINT('',(1.9E1,-7.5E0,1.05E1));
#389=LINE('',#388,#387);
#390=DIRECTION('',(0.E0,1.E0,0.E0));
#391=VECTOR('',#390,1.5E1);
#392=CARTESIAN_POINT('',(7.E0,-7.5E0,1.05E1));
#393=LINE('',#392,#391);
#394=DIRECTION('',(1.E0,0.E0,0.E0));
#395=VECTOR('',#394,1.2E1);
#396=CARTESIAN_POINT('',(7.E0,7.5E0,1.05E1));
#397=LINE('',#396,#395);
#398=DIRECTION('',(0.E0,1.E0,0.E0));
#399=VECTOR('',#398,4.E0);
#400=CARTESIAN_POINT('',(1.9E1,7.5E0,1.05E1));
#401=LINE('',#400,#399);
#402=DIRECTION('',(1.E0,0.E0,0.E0));
#403=VECTOR('',#402,3.E0);
#404=CARTESIAN_POINT('',(1.9E1,1.15E1,1.05E1));
#405=LINE('',#404,#403);
#406=DIRECTION('',(0.E0,0.E0,1.E0));
#407=VECTOR('',#406,2.1E1);
#408=CARTESIAN_POINT('',(2.2E1,-1.15E1,-1.05E1));
#409=LINE('',#408,#407);
#410=DIRECTION('',(0.E0,0.E0,1.E0));
#411=VECTOR('',#410,2.1E1);
#412=CARTESIAN_POINT('',(1.9E1,-1.15E1,-1.05E1));
#413=LINE('',#412,#411);
#414=DIRECTION('',(0.E0,0.E0,1.E0));
#415=VECTOR('',#414,2.1E1);
#416=CARTESIAN_POINT('',(1.9E1,1.15E1,-1.05E1));
#417=LINE('',#416,#415);
#418=CARTESIAN_POINT('',(2.2E1,-5.1E0,0.E0));
#419=CARTESIAN_POINT('',(2.2E1,5.1E0,0.E0));
#420=VERTEX_POINT('',#418);
#421=VERTEX_POINT('',#419);
#422=CARTESIAN_POINT('',(1.5E1,6.1E0,-6.1E0));
#423=CARTESIAN_POINT('',(1.5E1,-6.1E0,-6.1E0));
#424=VERTEX_POINT('',#422);
#425=VERTEX_POINT('',#423);
#426=CARTESIAN_POINT('',(1.5E1,-6.1E0,6.1E0));
#427=CARTESIAN_POINT('',(1.5E1,6.1E0,6.1E0));
#428=VERTEX_POINT('',#426);
#429=VERTEX_POINT('',#427);
#430=CARTESIAN_POINT('',(0.E0,6.1E0,-6.1E0));
#431=CARTESIAN_POINT('',(0.E0,-6.1E0,-6.1E0));
#432=VERTEX_POINT('',#430);
#433=VERTEX_POINT('',#431);
#434=CARTESIAN_POINT('',(0.E0,-6.1E0,6.1E0));
#435=VERTEX_POINT('',#434);
#436=CARTESIAN_POINT('',(0.E0,6.1E0,6.1E0));
#437=VERTEX_POINT('',#436);
#438=CARTESIAN_POINT('',(1.05E1,7.5E0,-2.75E0));
#439=CARTESIAN_POINT('',(1.05E1,7.5E0,2.75E0));
#440=VERTEX_POINT('',#438);
#441=VERTEX_POINT('',#439);
#442=CARTESIAN_POINT('',(1.6E1,7.5E0,2.75E0));
#443=VERTEX_POINT('',#442);
#444=CARTESIAN_POINT('',(1.6E1,7.5E0,-2.75E0));
#445=VERTEX_POINT('',#444);
#446=CARTESIAN_POINT('',(1.05E1,-7.5E0,-2.75E0));
#447=CARTESIAN_POINT('',(1.05E1,-7.5E0,2.75E0));
#448=VERTEX_POINT('',#446);
#449=VERTEX_POINT('',#447);
#450=CARTESIAN_POINT('',(1.6E1,-7.5E0,2.75E0));
#451=VERTEX_POINT('',#450);
#452=CARTESIAN_POINT('',(1.6E1,-7.5E0,-2.75E0));
#453=VERTEX_POINT('',#452);
#454=CARTESIAN_POINT('',(1.6E1,-5.1E0,0.E0));
#455=CARTESIAN_POINT('',(1.6E1,-4.295055296501E0,-2.75E0));
#456=VERTEX_POINT('',#454);
#457=VERTEX_POINT('',#455);
#458=CARTESIAN_POINT('',(1.6E1,4.295055296501E0,-2.75E0));
#459=CARTESIAN_POINT('',(1.6E1,5.1E0,0.E0));
#460=VERTEX_POINT('',#458);
#461=VERTEX_POINT('',#459);
#462=CARTESIAN_POINT('',(1.5E1,-4.295055296501E0,-2.75E0));
#463=VERTEX_POINT('',#462);
#464=CARTESIAN_POINT('',(1.5E1,4.295055296501E0,-2.75E0));
#465=VERTEX_POINT('',#464);
#466=CARTESIAN_POINT('',(1.5E1,4.295055296501E0,2.75E0));
#467=CARTESIAN_POINT('',(1.6E1,4.295055296501E0,2.75E0));
#468=VERTEX_POINT('',#466);
#469=VERTEX_POINT('',#467);
#470=CARTESIAN_POINT('',(1.5E1,-4.295055296501E0,2.75E0));
#471=CARTESIAN_POINT('',(1.6E1,-4.295055296501E0,2.75E0));
#472=VERTEX_POINT('',#470);
#473=VERTEX_POINT('',#471);
#474=CARTESIAN_POINT('',(1.05E1,-6.1E0,-2.75E0));
#475=CARTESIAN_POINT('',(1.05E1,-6.1E0,2.75E0));
#476=VERTEX_POINT('',#474);
#477=VERTEX_POINT('',#475);
#478=CARTESIAN_POINT('',(1.5E1,-6.1E0,2.75E0));
#479=VERTEX_POINT('',#478);
#480=CARTESIAN_POINT('',(1.5E1,-6.1E0,-2.75E0));
#481=VERTEX_POINT('',#480);
#482=CARTESIAN_POINT('',(1.05E1,6.1E0,-2.75E0));
#483=CARTESIAN_POINT('',(1.05E1,6.1E0,2.75E0));
#484=VERTEX_POINT('',#482);
#485=VERTEX_POINT('',#483);
#486=CARTESIAN_POINT('',(1.5E1,6.1E0,2.75E0));
#487=VERTEX_POINT('',#486);
#488=CARTESIAN_POINT('',(1.5E1,6.1E0,-2.75E0));
#489=VERTEX_POINT('',#488);
#490=CARTESIAN_POINT('',(7.E0,-7.5E0,-1.05E1));
#491=CARTESIAN_POINT('',(7.E0,7.5E0,-1.05E1));
#492=VERTEX_POINT('',#490);
#493=VERTEX_POINT('',#491);
#494=CARTESIAN_POINT('',(7.E0,-7.5E0,1.05E1));
#495=CARTESIAN_POINT('',(7.E0,7.5E0,1.05E1));
#496=VERTEX_POINT('',#494);
#497=VERTEX_POINT('',#495);
#498=CARTESIAN_POINT('',(1.9E1,-7.5E0,-1.05E1));
#499=VERTEX_POINT('',#498);
#500=CARTESIAN_POINT('',(1.9E1,7.5E0,-1.05E1));
#501=VERTEX_POINT('',#500);
#502=CARTESIAN_POINT('',(1.9E1,-7.5E0,1.05E1));
#503=VERTEX_POINT('',#502);
#504=CARTESIAN_POINT('',(1.9E1,7.5E0,1.05E1));
#505=VERTEX_POINT('',#504);
#506=CARTESIAN_POINT('',(1.9E1,1.15E1,-1.05E1));
#507=CARTESIAN_POINT('',(2.2E1,1.15E1,-1.05E1));
#508=VERTEX_POINT('',#506);
#509=VERTEX_POINT('',#507);
#510=CARTESIAN_POINT('',(2.2E1,-1.15E1,-1.05E1));
#511=CARTESIAN_POINT('',(1.9E1,-1.15E1,-1.05E1));
#512=VERTEX_POINT('',#510);
#513=VERTEX_POINT('',#511);
#514=CARTESIAN_POINT('',(1.9E1,1.15E1,1.05E1));
#515=CARTESIAN_POINT('',(2.2E1,1.15E1,1.05E1));
#516=VERTEX_POINT('',#514);
#517=VERTEX_POINT('',#515);
#518=CARTESIAN_POINT('',(2.2E1,-1.15E1,1.05E1));
#519=CARTESIAN_POINT('',(1.9E1,-1.15E1,1.05E1));
#520=VERTEX_POINT('',#518);
#521=VERTEX_POINT('',#519);
#522=CARTESIAN_POINT('',(0.E0,7.5E0,-6.5E0));
#523=CARTESIAN_POINT('',(0.E0,6.5E0,-7.5E0));
#524=VERTEX_POINT('',#522);
#525=VERTEX_POINT('',#523);
#526=CARTESIAN_POINT('',(7.E0,6.5E0,-7.5E0));
#527=VERTEX_POINT('',#526);
#528=CARTESIAN_POINT('',(7.E0,7.5E0,-6.5E0));
#529=VERTEX_POINT('',#528);
#530=CARTESIAN_POINT('',(0.E0,6.5E0,7.5E0));
#531=CARTESIAN_POINT('',(0.E0,7.5E0,6.5E0));
#532=VERTEX_POINT('',#530);
#533=VERTEX_POINT('',#531);
#534=CARTESIAN_POINT('',(7.E0,7.5E0,6.5E0));
#535=VERTEX_POINT('',#534);
#536=CARTESIAN_POINT('',(7.E0,6.5E0,7.5E0));
#537=VERTEX_POINT('',#536);
#538=CARTESIAN_POINT('',(0.E0,-6.5E0,-7.5E0));
#539=CARTESIAN_POINT('',(0.E0,-7.5E0,-6.5E0));
#540=VERTEX_POINT('',#538);
#541=VERTEX_POINT('',#539);
#542=CARTESIAN_POINT('',(7.E0,-7.5E0,-6.5E0));
#543=VERTEX_POINT('',#542);
#544=CARTESIAN_POINT('',(7.E0,-6.5E0,-7.5E0));
#545=VERTEX_POINT('',#544);
#546=CARTESIAN_POINT('',(0.E0,-7.5E0,6.5E0));
#547=CARTESIAN_POINT('',(0.E0,-6.5E0,7.5E0));
#548=VERTEX_POINT('',#546);
#549=VERTEX_POINT('',#547);
#550=CARTESIAN_POINT('',(7.E0,-6.5E0,7.5E0));
#551=VERTEX_POINT('',#550);
#552=CARTESIAN_POINT('',(7.E0,-7.5E0,6.5E0));
#553=VERTEX_POINT('',#552);
#554=CARTESIAN_POINT('',(0.E0,0.E0,0.E0));
#555=DIRECTION('',(1.E0,0.E0,0.E0));
#556=DIRECTION('',(0.E0,-1.E0,0.E0));
#557=AXIS2_PLACEMENT_3D('',#554,#555,#556);
#558=PLANE('',#557);
#560=ORIENTED_EDGE('',*,*,#559,.F.);
#562=ORIENTED_EDGE('',*,*,#561,.T.);
#564=ORIENTED_EDGE('',*,*,#563,.F.);
#566=ORIENTED_EDGE('',*,*,#565,.T.);
#568=ORIENTED_EDGE('',*,*,#567,.F.);
#570=ORIENTED_EDGE('',*,*,#569,.T.);
#572=ORIENTED_EDGE('',*,*,#571,.F.);
#574=ORIENTED_EDGE('',*,*,#573,.T.);
#575=EDGE_LOOP('',(#560,#562,#564,#566,#568,#570,#572,#574));
#576=FACE_OUTER_BOUND('',#575,.F.);
#578=ORIENTED_EDGE('',*,*,#577,.T.);
#580=ORIENTED_EDGE('',*,*,#579,.T.);
#582=ORIENTED_EDGE('',*,*,#581,.T.);
#584=ORIENTED_EDGE('',*,*,#583,.T.);
#585=EDGE_LOOP('',(#578,#580,#582,#584));
#586=FACE_BOUND('',#585,.F.);
#587=ADVANCED_FACE('',(#576,#586),#558,.F.);
#588=CARTESIAN_POINT('',(0.E0,6.1E0,-6.1E0));
#589=DIRECTION('',(0.E0,0.E0,-1.E0));
#590=DIRECTION('',(0.E0,-1.E0,0.E0));
#591=AXIS2_PLACEMENT_3D('',#588,#589,#590);
#592=PLANE('',#591);
#593=ORIENTED_EDGE('',*,*,#577,.F.);
#595=ORIENTED_EDGE('',*,*,#594,.T.);
#597=ORIENTED_EDGE('',*,*,#596,.T.);
#599=ORIENTED_EDGE('',*,*,#598,.F.);
#600=EDGE_LOOP('',(#593,#595,#597,#599));
#601=FACE_OUTER_BOUND('',#600,.F.);
#602=ADVANCED_FACE('',(#601),#592,.F.);
#603=CARTESIAN_POINT('',(0.E0,6.1E0,6.1E0));
#604=DIRECTION('',(0.E0,1.E0,0.E0));
#605=DIRECTION('',(0.E0,0.E0,-1.E0));
#606=AXIS2_PLACEMENT_3D('',#603,#604,#605);
#607=PLANE('',#606);
#609=ORIENTED_EDGE('',*,*,#608,.F.);
#611=ORIENTED_EDGE('',*,*,#610,.F.);
#613=ORIENTED_EDGE('',*,*,#612,.T.);
#614=ORIENTED_EDGE('',*,*,#594,.F.);
#615=ORIENTED_EDGE('',*,*,#583,.F.);
#617=ORIENTED_EDGE('',*,*,#616,.T.);
#619=ORIENTED_EDGE('',*,*,#618,.T.);
#621=ORIENTED_EDGE('',*,*,#620,.T.);
#622=EDGE_LOOP('',(#609,#611,#613,#614,#615,#617,#619,#621));
#623=FACE_OUTER_BOUND('',#622,.F.);
#624=ADVANCED_FACE('',(#623),#607,.F.);
#625=CARTESIAN_POINT('',(1.05E1,7.5E0,-2.75E0));
#626=DIRECTION('',(-1.E0,0.E0,0.E0));
#627=DIRECTION('',(0.E0,0.E0,1.E0));
#628=AXIS2_PLACEMENT_3D('',#625,#626,#627);
#629=PLANE('',#628);
#631=ORIENTED_EDGE('',*,*,#630,.F.);
#633=ORIENTED_EDGE('',*,*,#632,.T.);
#634=ORIENTED_EDGE('',*,*,#608,.T.);
#636=ORIENTED_EDGE('',*,*,#635,.F.);
#637=EDGE_LOOP('',(#631,#633,#634,#636));
#638=FACE_OUTER_BOUND('',#637,.F.);
#639=ADVANCED_FACE('',(#638),#629,.F.);
#640=CARTESIAN_POINT('',(1.05E1,7.5E0,-2.75E0));
#641=DIRECTION('',(-1.E0,0.E0,0.E0));
#642=DIRECTION('',(0.E0,0.E0,1.E0));
#643=AXIS2_PLACEMENT_3D('',#640,#641,#642);
#644=PLANE('',#643);
#646=ORIENTED_EDGE('',*,*,#645,.T.);
#648=ORIENTED_EDGE('',*,*,#647,.F.);
#650=ORIENTED_EDGE('',*,*,#649,.F.);
#652=ORIENTED_EDGE('',*,*,#651,.T.);
#653=EDGE_LOOP('',(#646,#648,#650,#652));
#654=FACE_OUTER_BOUND('',#653,.F.);
#655=ADVANCED_FACE('',(#654),#644,.F.);
#656=CARTESIAN_POINT('',(0.E0,7.5E0,-7.5E0));
#657=DIRECTION('',(0.E0,1.E0,0.E0));
#658=DIRECTION('',(0.E0,0.E0,1.E0));
#659=AXIS2_PLACEMENT_3D('',#656,#657,#658);
#660=PLANE('',#659);
#662=ORIENTED_EDGE('',*,*,#661,.F.);
#664=ORIENTED_EDGE('',*,*,#663,.F.);
#666=ORIENTED_EDGE('',*,*,#665,.T.);
#668=ORIENTED_EDGE('',*,*,#667,.T.);
#670=ORIENTED_EDGE('',*,*,#669,.F.);
#672=ORIENTED_EDGE('',*,*,#671,.F.);
#674=ORIENTED_EDGE('',*,*,#673,.T.);
#675=ORIENTED_EDGE('',*,*,#561,.F.);
#676=EDGE_LOOP('',(#662,#664,#666,#668,#670,#672,#674,#675));
#677=FACE_OUTER_BOUND('',#676,.F.);
#678=ORIENTED_EDGE('',*,*,#630,.T.);
#680=ORIENTED_EDGE('',*,*,#679,.T.);
#682=ORIENTED_EDGE('',*,*,#681,.T.);
#684=ORIENTED_EDGE('',*,*,#683,.T.);
#685=EDGE_LOOP('',(#678,#680,#682,#684));
#686=FACE_BOUND('',#685,.F.);
#687=ADVANCED_FACE('',(#677,#686),#660,.T.);
#688=CARTESIAN_POINT('',(1.05E1,7.5E0,2.75E0));
#689=DIRECTION('',(0.E0,0.E0,1.E0));
#690=DIRECTION('',(1.E0,0.E0,0.E0));
#691=AXIS2_PLACEMENT_3D('',#688,#689,#690);
#692=PLANE('',#691);
#693=ORIENTED_EDGE('',*,*,#679,.F.);
#694=ORIENTED_EDGE('',*,*,#635,.T.);
#695=ORIENTED_EDGE('',*,*,#620,.F.);
#697=ORIENTED_EDGE('',*,*,#696,.T.);
#699=ORIENTED_EDGE('',*,*,#698,.T.);
#701=ORIENTED_EDGE('',*,*,#700,.F.);
#702=EDGE_LOOP('',(#693,#694,#695,#697,#699,#701));
#703=FACE_OUTER_BOUND('',#702,.F.);
#704=ADVANCED_FACE('',(#703),#692,.F.);
#705=CARTESIAN_POINT('',(1.05E1,7.5E0,2.75E0));
#706=DIRECTION('',(0.E0,0.E0,1.E0));
#707=DIRECTION('',(1.E0,0.E0,0.E0));
#708=AXIS2_PLACEMENT_3D('',#705,#706,#707);
#709=PLANE('',#708);
#711=ORIENTED_EDGE('',*,*,#710,.T.);
#713=ORIENTED_EDGE('',*,*,#712,.F.);
#715=ORIENTED_EDGE('',*,*,#714,.F.);
#717=ORIENTED_EDGE('',*,*,#716,.T.);
#719=ORIENTED_EDGE('',*,*,#718,.T.);
#720=ORIENTED_EDGE('',*,*,#647,.T.);
#721=EDGE_LOOP('',(#711,#713,#715,#717,#719,#720));
#722=FACE_OUTER_BOUND('',#721,.F.);
#723=ADVANCED_FACE('',(#722),#709,.F.);
#724=CARTESIAN_POINT('',(1.5E1,0.E0,0.E0));
#725=DIRECTION('',(1.E0,0.E0,0.E0));
#726=DIRECTION('',(0.E0,-1.E0,0.E0));
#727=AXIS2_PLACEMENT_3D('',#724,#725,#726);
#728=PLANE('',#727);
#729=ORIENTED_EDGE('',*,*,#696,.F.);
#730=ORIENTED_EDGE('',*,*,#618,.F.);
#732=ORIENTED_EDGE('',*,*,#731,.F.);
#734=ORIENTED_EDGE('',*,*,#733,.F.);
#735=ORIENTED_EDGE('',*,*,#716,.F.);
#737=ORIENTED_EDGE('',*,*,#736,.F.);
#738=EDGE_LOOP('',(#729,#730,#732,#734,#735,#737));
#739=FACE_OUTER_BOUND('',#738,.F.);
#740=ADVANCED_FACE('',(#739),#728,.F.);
#741=CARTESIAN_POINT('',(1.5E1,0.E0,0.E0));
#742=DIRECTION('',(1.E0,0.E0,0.E0));
#743=DIRECTION('',(0.E0,-1.E0,0.E0));
#744=AXIS2_PLACEMENT_3D('',#741,#742,#743);
#745=PLANE('',#744);
#747=ORIENTED_EDGE('',*,*,#746,.T.);
#749=ORIENTED_EDGE('',*,*,#748,.F.);
#751=ORIENTED_EDGE('',*,*,#750,.T.);
#753=ORIENTED_EDGE('',*,*,#752,.F.);
#754=ORIENTED_EDGE('',*,*,#596,.F.);
#755=ORIENTED_EDGE('',*,*,#612,.F.);
#756=EDGE_LOOP('',(#747,#749,#751,#753,#754,#755));
#757=FACE_OUTER_BOUND('',#756,.F.);
#758=ADVANCED_FACE('',(#757),#745,.F.);
#759=CARTESIAN_POINT('',(0.E0,-6.1E0,6.1E0));
#760=DIRECTION('',(0.E0,0.E0,1.E0));
#761=DIRECTION('',(0.E0,1.E0,0.E0));
#762=AXIS2_PLACEMENT_3D('',#759,#760,#761);
#763=PLANE('',#762);
#764=ORIENTED_EDGE('',*,*,#581,.F.);
#766=ORIENTED_EDGE('',*,*,#765,.T.);
#767=ORIENTED_EDGE('',*,*,#731,.T.);
#768=ORIENTED_EDGE('',*,*,#616,.F.);
#769=EDGE_LOOP('',(#764,#766,#767,#768));
#770=FACE_OUTER_BOUND('',#769,.F.);
#771=ADVANCED_FACE('',(#770),#763,.F.);
#772=CARTESIAN_POINT('',(0.E0,-6.1E0,-6.1E0));
#773=DIRECTION('',(0.E0,-1.E0,0.E0));
#774=DIRECTION('',(0.E0,0.E0,1.E0));
#775=AXIS2_PLACEMENT_3D('',#772,#773,#774);
#776=PLANE('',#775);
#777=ORIENTED_EDGE('',*,*,#649,.T.);
#778=ORIENTED_EDGE('',*,*,#718,.F.);
#779=ORIENTED_EDGE('',*,*,#733,.T.);
#780=ORIENTED_EDGE('',*,*,#765,.F.);
#781=ORIENTED_EDGE('',*,*,#579,.F.);
#782=ORIENTED_EDGE('',*,*,#598,.T.);
#783=ORIENTED_EDGE('',*,*,#752,.T.);
#785=ORIENTED_EDGE('',*,*,#784,.T.);
#786=EDGE_LOOP('',(#777,#778,#779,#780,#781,#782,#783,#785));
#787=FACE_OUTER_BOUND('',#786,.F.);
#788=ADVANCED_FACE('',(#787),#776,.F.);
#789=CARTESIAN_POINT('',(1.6E1,7.5E0,-2.75E0));
#790=DIRECTION('',(0.E0,0.E0,-1.E0));
#791=DIRECTION('',(-1.E0,0.E0,0.E0));
#792=AXIS2_PLACEMENT_3D('',#789,#790,#791);
#793=PLANE('',#792);
#794=ORIENTED_EDGE('',*,*,#683,.F.);
#796=ORIENTED_EDGE('',*,*,#795,.T.);
#798=ORIENTED_EDGE('',*,*,#797,.F.);
#799=ORIENTED_EDGE('',*,*,#746,.F.);
#800=ORIENTED_EDGE('',*,*,#610,.T.);
#801=ORIENTED_EDGE('',*,*,#632,.F.);
#802=EDGE_LOOP('',(#794,#796,#798,#799,#800,#801));
#803=FACE_OUTER_BOUND('',#802,.F.);
#804=ADVANCED_FACE('',(#803),#793,.F.);
#805=CARTESIAN_POINT('',(1.6E1,7.5E0,-2.75E0));
#806=DIRECTION('',(0.E0,0.E0,-1.E0));
#807=DIRECTION('',(-1.E0,0.E0,0.E0));
#808=AXIS2_PLACEMENT_3D('',#805,#806,#807);
#809=PLANE('',#808);
#811=ORIENTED_EDGE('',*,*,#810,.T.);
#812=ORIENTED_EDGE('',*,*,#651,.F.);
#813=ORIENTED_EDGE('',*,*,#784,.F.);
#814=ORIENTED_EDGE('',*,*,#750,.F.);
#816=ORIENTED_EDGE('',*,*,#815,.T.);
#818=ORIENTED_EDGE('',*,*,#817,.T.);
#819=EDGE_LOOP('',(#811,#812,#813,#814,#816,#818));
#820=FACE_OUTER_BOUND('',#819,.F.);
#821=ADVANCED_FACE('',(#820),#809,.F.);
#822=CARTESIAN_POINT('',(1.6E1,7.5E0,2.75E0));
#823=DIRECTION('',(1.E0,0.E0,0.E0));
#824=DIRECTION('',(0.E0,0.E0,-1.E0));
#825=AXIS2_PLACEMENT_3D('',#822,#823,#824);
#826=PLANE('',#825);
#827=ORIENTED_EDGE('',*,*,#681,.F.);
#828=ORIENTED_EDGE('',*,*,#700,.T.);
#830=ORIENTED_EDGE('',*,*,#829,.F.);
#832=ORIENTED_EDGE('',*,*,#831,.F.);
#833=ORIENTED_EDGE('',*,*,#795,.F.);
#834=EDGE_LOOP('',(#827,#828,#830,#832,#833));
#835=FACE_OUTER_BOUND('',#834,.F.);
#836=ADVANCED_FACE('',(#835),#826,.F.);
#837=CARTESIAN_POINT('',(1.6E1,7.5E0,2.75E0));
#838=DIRECTION('',(1.E0,0.E0,0.E0));
#839=DIRECTION('',(0.E0,0.E0,-1.E0));
#840=AXIS2_PLACEMENT_3D('',#837,#838,#839);
#841=PLANE('',#840);
#843=ORIENTED_EDGE('',*,*,#842,.T.);
#844=ORIENTED_EDGE('',*,*,#817,.F.);
#846=ORIENTED_EDGE('',*,*,#845,.F.);
#848=ORIENTED_EDGE('',*,*,#847,.F.);
#849=ORIENTED_EDGE('',*,*,#712,.T.);
#850=EDGE_LOOP('',(#843,#844,#846,#848,#849));
#851=FACE_OUTER_BOUND('',#850,.F.);
#852=ADVANCED_FACE('',(#851),#841,.F.);
#853=CARTESIAN_POINT('',(2.2E1,0.E0,0.E0));
#854=DIRECTION('',(1.E0,0.E0,0.E0));
#855=DIRECTION('',(0.E0,-1.E0,0.E0));
#856=AXIS2_PLACEMENT_3D('',#853,#854,#855);
#857=CYLINDRICAL_SURFACE('',#856,5.1E0);
#858=ORIENTED_EDGE('',*,*,#698,.F.);
#859=ORIENTED_EDGE('',*,*,#736,.T.);
#860=ORIENTED_EDGE('',*,*,#714,.T.);
#861=ORIENTED_EDGE('',*,*,#847,.T.);
#863=ORIENTED_EDGE('',*,*,#862,.F.);
#865=ORIENTED_EDGE('',*,*,#864,.F.);
#867=ORIENTED_EDGE('',*,*,#866,.T.);
#868=ORIENTED_EDGE('',*,*,#829,.T.);
#869=EDGE_LOOP('',(#858,#859,#860,#861,#863,#865,#867,#868));
#870=FACE_OUTER_BOUND('',#869,.F.);
#871=ADVANCED_FACE('',(#870),#857,.F.);
#872=CARTESIAN_POINT('',(2.2E1,0.E0,0.E0));
#873=DIRECTION('',(1.E0,0.E0,0.E0));
#874=DIRECTION('',(0.E0,-1.E0,0.E0));
#875=AXIS2_PLACEMENT_3D('',#872,#873,#874);
#876=CYLINDRICAL_SURFACE('',#875,5.1E0);
#877=ORIENTED_EDGE('',*,*,#845,.T.);
#878=ORIENTED_EDGE('',*,*,#815,.F.);
#879=ORIENTED_EDGE('',*,*,#748,.T.);
#880=ORIENTED_EDGE('',*,*,#797,.T.);
#881=ORIENTED_EDGE('',*,*,#831,.T.);
#882=ORIENTED_EDGE('',*,*,#866,.F.);
#884=ORIENTED_EDGE('',*,*,#883,.F.);
#885=ORIENTED_EDGE('',*,*,#862,.T.);
#886=EDGE_LOOP('',(#877,#878,#879,#880,#881,#882,#884,#885));
#887=FACE_OUTER_BOUND('',#886,.F.);
#888=ADVANCED_FACE('',(#887),#876,.F.);
#889=CARTESIAN_POINT('',(2.2E1,0.E0,0.E0));
#890=DIRECTION('',(1.E0,0.E0,0.E0));
#891=DIRECTION('',(0.E0,-1.E0,0.E0));
#892=AXIS2_PLACEMENT_3D('',#889,#890,#891);
#893=PLANE('',#892);
#895=ORIENTED_EDGE('',*,*,#894,.T.);
#897=ORIENTED_EDGE('',*,*,#896,.T.);
#899=ORIENTED_EDGE('',*,*,#898,.T.);
#901=ORIENTED_EDGE('',*,*,#900,.F.);
#902=EDGE_LOOP('',(#895,#897,#899,#901));
#903=FACE_OUTER_BOUND('',#902,.F.);
#904=ORIENTED_EDGE('',*,*,#883,.T.);
#905=ORIENTED_EDGE('',*,*,#864,.T.);
#906=EDGE_LOOP('',(#904,#905));
#907=FACE_BOUND('',#906,.F.);
#908=ADVANCED_FACE('',(#903,#907),#893,.T.);
#909=CARTESIAN_POINT('',(0.E0,0.E0,-1.05E1));
#910=DIRECTION('',(0.E0,0.E0,-1.E0));
#911=DIRECTION('',(-1.E0,0.E0,0.E0));
#912=AXIS2_PLACEMENT_3D('',#909,#910,#911);
#913=PLANE('',#912);
#915=ORIENTED_EDGE('',*,*,#914,.F.);
#917=ORIENTED_EDGE('',*,*,#916,.F.);
#919=ORIENTED_EDGE('',*,*,#918,.F.);
#920=ORIENTED_EDGE('',*,*,#894,.F.);
#922=ORIENTED_EDGE('',*,*,#921,.F.);
#924=ORIENTED_EDGE('',*,*,#923,.F.);
#925=ORIENTED_EDGE('',*,*,#665,.F.);
#927=ORIENTED_EDGE('',*,*,#926,.F.);
#928=EDGE_LOOP('',(#915,#917,#919,#920,#922,#924,#925,#927));
#929=FACE_OUTER_BOUND('',#928,.F.);
#930=ADVANCED_FACE('',(#929),#913,.T.);
#931=CARTESIAN_POINT('',(0.E0,-7.5E0,7.5E0));
#932=DIRECTION('',(0.E0,-1.E0,0.E0));
#933=DIRECTION('',(0.E0,0.E0,-1.E0));
#934=AXIS2_PLACEMENT_3D('',#931,#932,#933);
#935=PLANE('',#934);
#937=ORIENTED_EDGE('',*,*,#936,.T.);
#938=ORIENTED_EDGE('',*,*,#569,.F.);
#940=ORIENTED_EDGE('',*,*,#939,.F.);
#942=ORIENTED_EDGE('',*,*,#941,.F.);
#944=ORIENTED_EDGE('',*,*,#943,.F.);
#946=ORIENTED_EDGE('',*,*,#945,.T.);
#947=ORIENTED_EDGE('',*,*,#914,.T.);
#949=ORIENTED_EDGE('',*,*,#948,.F.);
#950=EDGE_LOOP('',(#937,#938,#940,#942,#944,#946,#947,#949));
#951=FACE_OUTER_BOUND('',#950,.F.);
#952=ORIENTED_EDGE('',*,*,#645,.F.);
#953=ORIENTED_EDGE('',*,*,#810,.F.);
#954=ORIENTED_EDGE('',*,*,#842,.F.);
#955=ORIENTED_EDGE('',*,*,#710,.F.);
#956=EDGE_LOOP('',(#952,#953,#954,#955));
#957=FACE_BOUND('',#956,.F.);
#958=ADVANCED_FACE('',(#951,#957),#935,.T.);
#959=CARTESIAN_POINT('',(3.5E0,-7.E0,-7.E0));
#960=DIRECTION('',(0.E0,-7.071067811865E-1,-7.071067811865E-1));
#961=DIRECTION('',(0.E0,-7.071067811865E-1,7.071067811865E-1));
#962=AXIS2_PLACEMENT_3D('',#959,#960,#961);
#963=PLANE('',#962);
#964=ORIENTED_EDGE('',*,*,#571,.T.);
#965=ORIENTED_EDGE('',*,*,#936,.F.);
#967=ORIENTED_EDGE('',*,*,#966,.T.);
#969=ORIENTED_EDGE('',*,*,#968,.T.);
#970=EDGE_LOOP('',(#964,#965,#967,#969));
#971=FACE_OUTER_BOUND('',#970,.F.);
#972=ADVANCED_FACE('',(#971),#963,.T.);
#973=CARTESIAN_POINT('',(7.E0,-7.5E0,-7.5E0));
#974=DIRECTION('',(-1.E0,0.E0,0.E0));
#975=DIRECTION('',(0.E0,1.E0,0.E0));
#976=AXIS2_PLACEMENT_3D('',#973,#974,#975);
#977=PLANE('',#976);
#979=ORIENTED_EDGE('',*,*,#978,.F.);
#980=ORIENTED_EDGE('',*,*,#966,.F.);
#981=ORIENTED_EDGE('',*,*,#948,.T.);
#982=ORIENTED_EDGE('',*,*,#926,.T.);
#983=ORIENTED_EDGE('',*,*,#663,.T.);
#985=ORIENTED_EDGE('',*,*,#984,.F.);
#986=EDGE_LOOP('',(#979,#980,#981,#982,#983,#985));
#987=FACE_OUTER_BOUND('',#986,.F.);
#988=ADVANCED_FACE('',(#987),#977,.T.);
#989=CARTESIAN_POINT('',(0.E0,-7.5E0,-7.5E0));
#990=DIRECTION('',(0.E0,0.E0,-1.E0));
#991=DIRECTION('',(0.E0,1.E0,0.E0));
#992=AXIS2_PLACEMENT_3D('',#989,#990,#991);
#993=PLANE('',#992);
#995=ORIENTED_EDGE('',*,*,#994,.T.);
#996=ORIENTED_EDGE('',*,*,#573,.F.);
#997=ORIENTED_EDGE('',*,*,#968,.F.);
#998=ORIENTED_EDGE('',*,*,#978,.T.);
#999=EDGE_LOOP('',(#995,#996,#997,#998));
#1000=FACE_OUTER_BOUND('',#999,.F.);
#1001=ADVANCED_FACE('',(#1000),#993,.T.);
#1002=CARTESIAN_POINT('',(3.5E0,7.E0,-7.E0));
#1003=DIRECTION('',(0.E0,7.071067811865E-1,-7.071067811865E-1));
#1004=DIRECTION('',(0.E0,-7.071067811865E-1,-7.071067811865E-1));
#1005=AXIS2_PLACEMENT_3D('',#1002,#1003,#1004);
#1006=PLANE('',#1005);
#1007=ORIENTED_EDGE('',*,*,#559,.T.);
#1008=ORIENTED_EDGE('',*,*,#994,.F.);
#1009=ORIENTED_EDGE('',*,*,#984,.T.);
#1010=ORIENTED_EDGE('',*,*,#661,.T.);
#1011=EDGE_LOOP('',(#1007,#1008,#1009,#1010));
#1012=FACE_OUTER_BOUND('',#1011,.F.);
#1013=ADVANCED_FACE('',(#1012),#1006,.T.);
#1014=CARTESIAN_POINT('',(3.5E0,-7.E0,7.E0));
#1015=DIRECTION('',(0.E0,-7.071067811865E-1,7.071067811865E-1));
#1016=DIRECTION('',(0.E0,7.071067811865E-1,7.071067811865E-1));
#1017=AXIS2_PLACEMENT_3D('',#1014,#1015,#1016);
#1018=PLANE('',#1017);
#1019=ORIENTED_EDGE('',*,*,#567,.T.);
#1021=ORIENTED_EDGE('',*,*,#1020,.F.);
#1023=ORIENTED_EDGE('',*,*,#1022,.T.);
#1024=ORIENTED_EDGE('',*,*,#939,.T.);
#1025=EDGE_LOOP('',(#1019,#1021,#1023,#1024));
#1026=FACE_OUTER_BOUND('',#1025,.F.);
#1027=ADVANCED_FACE('',(#1026),#1018,.T.);
#1028=CARTESIAN_POINT('',(0.E0,7.5E0,7.5E0));
#1029=DIRECTION('',(0.E0,0.E0,1.E0));
#1030=DIRECTION('',(0.E0,-1.E0,0.E0));
#1031=AXIS2_PLACEMENT_3D('',#1028,#1029,#1030);
#1032=PLANE('',#1031);
#1034=ORIENTED_EDGE('',*,*,#1033,.F.);
#1036=ORIENTED_EDGE('',*,*,#1035,.T.);
#1037=ORIENTED_EDGE('',*,*,#1020,.T.);
#1038=ORIENTED_EDGE('',*,*,#565,.F.);
#1039=EDGE_LOOP('',(#1034,#1036,#1037,#1038));
#1040=FACE_OUTER_BOUND('',#1039,.F.);
#1041=ADVANCED_FACE('',(#1040),#1032,.T.);
#1042=CARTESIAN_POINT('',(3.5E0,7.E0,7.E0));
#1043=DIRECTION('',(0.E0,7.071067811865E-1,7.071067811865E-1));
#1044=DIRECTION('',(0.E0,7.071067811865E-1,-7.071067811865E-1));
#1045=AXIS2_PLACEMENT_3D('',#1042,#1043,#1044);
#1046=PLANE('',#1045);
#1047=ORIENTED_EDGE('',*,*,#563,.T.);
#1048=ORIENTED_EDGE('',*,*,#673,.F.);
#1050=ORIENTED_EDGE('',*,*,#1049,.T.);
#1051=ORIENTED_EDGE('',*,*,#1033,.T.);
#1052=EDGE_LOOP('',(#1047,#1048,#1050,#1051));
#1053=FACE_OUTER_BOUND('',#1052,.F.);
#1054=ADVANCED_FACE('',(#1053),#1046,.T.);
#1055=CARTESIAN_POINT('',(7.E0,-7.5E0,7.5E0));
#1056=DIRECTION('',(1.E0,0.E0,0.E0));
#1057=DIRECTION('',(0.E0,1.E0,0.E0));
#1058=AXIS2_PLACEMENT_3D('',#1055,#1056,#1057);
#1059=PLANE('',#1058);
#1060=ORIENTED_EDGE('',*,*,#941,.T.);
#1061=ORIENTED_EDGE('',*,*,#1022,.F.);
#1062=ORIENTED_EDGE('',*,*,#1035,.F.);
#1063=ORIENTED_EDGE('',*,*,#1049,.F.);
#1064=ORIENTED_EDGE('',*,*,#671,.T.);
#1066=ORIENTED_EDGE('',*,*,#1065,.F.);
#1067=EDGE_LOOP('',(#1060,#1061,#1062,#1063,#1064,#1066));
#1068=FACE_OUTER_BOUND('',#1067,.F.);
#1069=ADVANCED_FACE('',(#1068),#1059,.F.);
#1070=CARTESIAN_POINT('',(0.E0,0.E0,1.05E1));
#1071=DIRECTION('',(0.E0,0.E0,-1.E0));
#1072=DIRECTION('',(-1.E0,0.E0,0.E0));
#1073=AXIS2_PLACEMENT_3D('',#1070,#1071,#1072);
#1074=PLANE('',#1073);
#1075=ORIENTED_EDGE('',*,*,#898,.F.);
#1077=ORIENTED_EDGE('',*,*,#1076,.T.);
#1079=ORIENTED_EDGE('',*,*,#1078,.T.);
#1080=ORIENTED_EDGE('',*,*,#943,.T.);
#1081=ORIENTED_EDGE('',*,*,#1065,.T.);
#1082=ORIENTED_EDGE('',*,*,#669,.T.);
#1084=ORIENTED_EDGE('',*,*,#1083,.T.);
#1086=ORIENTED_EDGE('',*,*,#1085,.T.);
#1087=EDGE_LOOP('',(#1075,#1077,#1079,#1080,#1081,#1082,#1084,#1086));
#1088=FACE_OUTER_BOUND('',#1087,.F.);
#1089=ADVANCED_FACE('',(#1088),#1074,.F.);
#1090=CARTESIAN_POINT('',(2.2E1,-1.15E1,-1.05E1));
#1091=DIRECTION('',(0.E0,-1.E0,0.E0));
#1092=DIRECTION('',(-1.E0,0.E0,0.E0));
#1093=AXIS2_PLACEMENT_3D('',#1090,#1091,#1092);
#1094=PLANE('',#1093);
#1095=ORIENTED_EDGE('',*,*,#918,.T.);
#1097=ORIENTED_EDGE('',*,*,#1096,.T.);
#1098=ORIENTED_EDGE('',*,*,#1076,.F.);
#1099=ORIENTED_EDGE('',*,*,#896,.F.);
#1100=EDGE_LOOP('',(#1095,#1097,#1098,#1099));
#1101=FACE_OUTER_BOUND('',#1100,.F.);
#1102=ADVANCED_FACE('',(#1101),#1094,.T.);
#1103=CARTESIAN_POINT('',(1.9E1,-1.15E1,-1.05E1));
#1104=DIRECTION('',(-1.E0,0.E0,0.E0));
#1105=DIRECTION('',(0.E0,1.E0,0.E0));
#1106=AXIS2_PLACEMENT_3D('',#1103,#1104,#1105);
#1107=PLANE('',#1106);
#1108=ORIENTED_EDGE('',*,*,#945,.F.);
#1109=ORIENTED_EDGE('',*,*,#1078,.F.);
#1110=ORIENTED_EDGE('',*,*,#1096,.F.);
#1111=ORIENTED_EDGE('',*,*,#916,.T.);
#1112=EDGE_LOOP('',(#1108,#1109,#1110,#1111));
#1113=FACE_OUTER_BOUND('',#1112,.F.);
#1114=ADVANCED_FACE('',(#1113),#1107,.T.);
#1115=CARTESIAN_POINT('',(1.9E1,7.5E0,-1.05E1));
#1116=DIRECTION('',(-1.E0,0.E0,0.E0));
#1117=DIRECTION('',(0.E0,1.E0,0.E0));
#1118=AXIS2_PLACEMENT_3D('',#1115,#1116,#1117);
#1119=PLANE('',#1118);
#1120=ORIENTED_EDGE('',*,*,#667,.F.);
#1121=ORIENTED_EDGE('',*,*,#923,.T.);
#1123=ORIENTED_EDGE('',*,*,#1122,.T.);
#1124=ORIENTED_EDGE('',*,*,#1083,.F.);
#1125=EDGE_LOOP('',(#1120,#1121,#1123,#1124));
#1126=FACE_OUTER_BOUND('',#1125,.F.);
#1127=ADVANCED_FACE('',(#1126),#1119,.T.);
#1128=CARTESIAN_POINT('',(1.9E1,1.15E1,-1.05E1));
#1129=DIRECTION('',(0.E0,1.E0,0.E0));
#1130=DIRECTION('',(1.E0,0.E0,0.E0));
#1131=AXIS2_PLACEMENT_3D('',#1128,#1129,#1130);
#1132=PLANE('',#1131);
#1133=ORIENTED_EDGE('',*,*,#921,.T.);
#1134=ORIENTED_EDGE('',*,*,#900,.T.);
#1135=ORIENTED_EDGE('',*,*,#1085,.F.);
#1136=ORIENTED_EDGE('',*,*,#1122,.F.);
#1137=EDGE_LOOP('',(#1133,#1134,#1135,#1136));
#1138=FACE_OUTER_BOUND('',#1137,.F.);
#1139=ADVANCED_FACE('',(#1138),#1132,.T.);
#1143=DIMENSIONAL_EXPONENTS(0.E0,0.E0,0.E0,0.E0,0.E0,0.E0,0.E0);
#1145=PLANE_ANGLE_MEASURE_WITH_UNIT(PLANE_ANGLE_MEASURE(1.745329251994E-2),
#1144);
#1146=(CONVERSION_BASED_UNIT('DEGREE',#1145)NAMED_UNIT(*)PLANE_ANGLE_UNIT());
#1148=UNCERTAINTY_MEASURE_WITH_UNIT(LENGTH_MEASURE(3.812982667580E-3),#1142,
'closure',
'Maximum model space distance between geometric entities at asserted connectivities');
#1149=(GEOMETRIC_REPRESENTATION_CONTEXT(3)GLOBAL_UNCERTAINTY_ASSIGNED_CONTEXT((
#1148))GLOBAL_UNIT_ASSIGNED_CONTEXT((#1142,#1146,#1147))REPRESENTATION_CONTEXT(
'ID1','3'));
#1151=APPLICATION_CONTEXT(
'CONFIGURATION CONTROLLED 3D DESIGNS OF MECHANICAL PARTS AND ASSEMBLIES');
#1152=APPLICATION_PROTOCOL_DEFINITION('international standard',
'config_control_design',1994,#1151);
#1153=DESIGN_CONTEXT('',#1151,'design');
#1154=MECHANICAL_CONTEXT('',#1151,'mechanical');
#1155=PRODUCT('LED_BUTTON_BASE','LED_BUTTON_BASE','NOT SPECIFIED',(#1154));
#1156=PRODUCT_DEFINITION_FORMATION_WITH_SPECIFIED_SOURCE('11','LAST_VERSION',
#1155,.MADE.);
#1160=PRODUCT_CATEGORY('part','');
#1161=PRODUCT_RELATED_PRODUCT_CATEGORY('detail','',(#1155));
#1162=PRODUCT_CATEGORY_RELATIONSHIP('','',#1160,#1161);
#1163=SECURITY_CLASSIFICATION_LEVEL('unclassified');
#1164=SECURITY_CLASSIFICATION('','',#1163);
#1165=CC_DESIGN_SECURITY_CLASSIFICATION(#1164,(#1156));
#1166=APPROVAL_STATUS('approved');
#1167=APPROVAL(#1166,'');
#1168=CC_DESIGN_APPROVAL(#1167,(#1164,#1156,#1157));
#1169=CALENDAR_DATE(124,8,11);
#1170=COORDINATED_UNIVERSAL_TIME_OFFSET(1,0,.AHEAD.);
#1171=LOCAL_TIME(11,38,1.8E1,#1170);
#1172=DATE_AND_TIME(#1169,#1171);
#1173=APPROVAL_DATE_TIME(#1172,#1167);
#1174=DATE_TIME_ROLE('creation_date');
#1175=CC_DESIGN_DATE_AND_TIME_ASSIGNMENT(#1172,#1174,(#1157));
#1176=DATE_TIME_ROLE('classification_date');
#1177=CC_DESIGN_DATE_AND_TIME_ASSIGNMENT(#1172,#1176,(#1164));
#1178=PERSON('UNSPECIFIED','UNSPECIFIED',$,$,$,$);
#1179=ORGANIZATION('UNSPECIFIED','UNSPECIFIED','UNSPECIFIED');
#1180=PERSON_AND_ORGANIZATION(#1178,#1179);
#1181=APPROVAL_ROLE('approver');
#1182=APPROVAL_PERSON_ORGANIZATION(#1180,#1167,#1181);
#1183=PERSON_AND_ORGANIZATION_ROLE('creator');
#1184=CC_DESIGN_PERSON_AND_ORGANIZATION_ASSIGNMENT(#1180,#1183,(#1156,#1157));
#1185=PERSON_AND_ORGANIZATION_ROLE('design_supplier');
#1186=CC_DESIGN_PERSON_AND_ORGANIZATION_ASSIGNMENT(#1180,#1185,(#1156));
#1187=PERSON_AND_ORGANIZATION_ROLE('classification_officer');
#1188=CC_DESIGN_PERSON_AND_ORGANIZATION_ASSIGNMENT(#1180,#1187,(#1164));
#1189=PERSON_AND_ORGANIZATION_ROLE('design_owner');
#1190=CC_DESIGN_PERSON_AND_ORGANIZATION_ASSIGNMENT(#1180,#1189,(#1155));
#198=CIRCLE('',#197,5.1E0);
#207=CIRCLE('',#206,5.1E0);
#216=CIRCLE('',#215,5.1E0);
#221=CIRCLE('',#220,5.1E0);
#230=CIRCLE('',#229,5.1E0);
#239=CIRCLE('',#238,5.1E0);
#248=CIRCLE('',#247,5.1E0);
#253=CIRCLE('',#252,5.1E0);
#559=EDGE_CURVE('',#524,#525,#21,.T.);
#561=EDGE_CURVE('',#524,#533,#25,.T.);
#563=EDGE_CURVE('',#532,#533,#29,.T.);
#565=EDGE_CURVE('',#532,#549,#33,.T.);
#567=EDGE_CURVE('',#548,#549,#37,.T.);
#569=EDGE_CURVE('',#548,#541,#41,.T.);
#571=EDGE_CURVE('',#540,#541,#45,.T.);
#573=EDGE_CURVE('',#540,#525,#49,.T.);
#577=EDGE_CURVE('',#432,#433,#5,.T.);
#579=EDGE_CURVE('',#433,#435,#9,.T.);
#581=EDGE_CURVE('',#435,#437,#13,.T.);
#583=EDGE_CURVE('',#437,#432,#17,.T.);
#594=EDGE_CURVE('',#432,#424,#53,.T.);
#596=EDGE_CURVE('',#424,#425,#149,.T.);
#598=EDGE_CURVE('',#433,#425,#169,.T.);
#608=EDGE_CURVE('',#484,#485,#57,.T.);
#610=EDGE_CURVE('',#489,#484,#61,.T.);
#612=EDGE_CURVE('',#489,#424,#153,.T.);
#616=EDGE_CURVE('',#437,#429,#65,.T.);
#618=EDGE_CURVE('',#429,#487,#121,.T.);
#620=EDGE_CURVE('',#487,#485,#69,.T.);
#630=EDGE_CURVE('',#440,#441,#81,.T.);
#632=EDGE_CURVE('',#440,#484,#73,.T.);
#635=EDGE_CURVE('',#441,#485,#109,.T.);
#645=EDGE_CURVE('',#448,#449,#297,.T.);
#647=EDGE_CURVE('',#477,#449,#113,.T.);
#649=EDGE_CURVE('',#476,#477,#161,.T.);
#651=EDGE_CURVE('',#476,#448,#77,.T.);
#661=EDGE_CURVE('',#529,#524,#97,.T.);
#663=EDGE_CURVE('',#493,#529,#333,.T.);
#665=EDGE_CURVE('',#493,#501,#289,.T.);
#667=EDGE_CURVE('',#501,#505,#101,.T.);
#669=EDGE_CURVE('',#497,#505,#397,.T.);
#671=EDGE_CURVE('',#535,#497,#377,.T.);
#673=EDGE_CURVE('',#535,#533,#105,.T.);
#679=EDGE_CURVE('',#441,#443,#85,.T.);
#681=EDGE_CURVE('',#443,#445,#89,.T.);
#683=EDGE_CURVE('',#445,#440,#93,.T.);
#696=EDGE_CURVE('',#487,#468,#117,.T.);
#698=EDGE_CURVE('',#468,#469,#193,.T.);
#700=EDGE_CURVE('',#443,#469,#185,.T.);
#710=EDGE_CURVE('',#449,#451,#309,.T.);
#712=EDGE_CURVE('',#473,#451,#189,.T.);
#714=EDGE_CURVE('',#472,#473,#202,.T.);
#716=EDGE_CURVE('',#472,#479,#133,.T.);
#718=EDGE_CURVE('',#479,#477,#165,.T.);
#731=EDGE_CURVE('',#428,#429,#125,.T.);
#733=EDGE_CURVE('',#479,#428,#129,.T.);
#736=EDGE_CURVE('',#468,#472,#198,.T.);
#746=EDGE_CURVE('',#489,#465,#137,.T.);
#748=EDGE_CURVE('',#463,#465,#230,.T.);
#750=EDGE_CURVE('',#463,#481,#141,.T.);
#752=EDGE_CURVE('',#425,#481,#145,.T.);
#765=EDGE_CURVE('',#435,#428,#157,.T.);
#784=EDGE_CURVE('',#481,#476,#173,.T.);
#795=EDGE_CURVE('',#445,#460,#177,.T.);
#797=EDGE_CURVE('',#465,#460,#234,.T.);
#810=EDGE_CURVE('',#453,#448,#301,.T.);
#815=EDGE_CURVE('',#463,#457,#225,.T.);
#817=EDGE_CURVE('',#457,#453,#181,.T.);
#829=EDGE_CURVE('',#461,#469,#216,.T.);
#831=EDGE_CURVE('',#460,#461,#239,.T.);
#842=EDGE_CURVE('',#451,#453,#305,.T.);
#845=EDGE_CURVE('',#456,#457,#221,.T.);
#847=EDGE_CURVE('',#473,#456,#207,.T.);
#862=EDGE_CURVE('',#420,#456,#243,.T.);
#864=EDGE_CURVE('',#421,#420,#253,.T.);
#866=EDGE_CURVE('',#421,#461,#211,.T.);
#883=EDGE_CURVE('',#420,#421,#248,.T.);
#894=EDGE_CURVE('',#509,#512,#257,.T.);
#896=EDGE_CURVE('',#512,#520,#409,.T.);
#898=EDGE_CURVE('',#520,#517,#261,.T.);
#900=EDGE_CURVE('',#509,#517,#265,.T.);
#914=EDGE_CURVE('',#499,#492,#269,.T.);
#916=EDGE_CURVE('',#513,#499,#273,.T.);
#918=EDGE_CURVE('',#512,#513,#277,.T.);
#921=EDGE_CURVE('',#508,#509,#281,.T.);
#923=EDGE_CURVE('',#501,#508,#285,.T.);
#926=EDGE_CURVE('',#492,#493,#293,.T.);
#936=EDGE_CURVE('',#543,#541,#313,.T.);
#939=EDGE_CURVE('',#553,#548,#317,.T.);
#941=EDGE_CURVE('',#496,#553,#373,.T.);
#943=EDGE_CURVE('',#503,#496,#389,.T.);
#945=EDGE_CURVE('',#503,#499,#321,.T.);
#948=EDGE_CURVE('',#543,#492,#329,.T.);
#966=EDGE_CURVE('',#543,#545,#325,.T.);
#968=EDGE_CURVE('',#545,#540,#341,.T.);
#978=EDGE_CURVE('',#545,#527,#345,.T.);
#984=EDGE_CURVE('',#527,#529,#349,.T.);
#994=EDGE_CURVE('',#527,#525,#337,.T.);
#1020=EDGE_CURVE('',#551,#549,#365,.T.);
#1022=EDGE_CURVE('',#551,#553,#353,.T.);
#1033=EDGE_CURVE('',#537,#532,#357,.T.);
#1035=EDGE_CURVE('',#537,#551,#361,.T.);
#1049=EDGE_CURVE('',#535,#537,#369,.T.);
#1065=EDGE_CURVE('',#496,#497,#393,.T.);
#1076=EDGE_CURVE('',#520,#521,#381,.T.);
#1078=EDGE_CURVE('',#521,#503,#385,.T.);
#1083=EDGE_CURVE('',#505,#516,#401,.T.);
#1085=EDGE_CURVE('',#516,#517,#405,.T.);
#1096=EDGE_CURVE('',#513,#521,#413,.T.);
#1122=EDGE_CURVE('',#508,#516,#417,.T.);
#1140=CLOSED_SHELL('',(#587,#602,#624,#639,#655,#687,#704,#723,#740,#758,#771,
#788,#804,#821,#836,#852,#871,#888,#908,#930,#958,#972,#988,#1001,#1013,#1027,
#1041,#1054,#1069,#1089,#1102,#1114,#1127,#1139));
#1141=MANIFOLD_SOLID_BREP('',#1140);
#1142=(LENGTH_UNIT()NAMED_UNIT(*)SI_UNIT(.MILLI.,.METRE.));
#1144=(NAMED_UNIT(*)PLANE_ANGLE_UNIT()SI_UNIT($,.RADIAN.));
#1147=(NAMED_UNIT(*)SI_UNIT($,.STERADIAN.)SOLID_ANGLE_UNIT());
#1150=ADVANCED_BREP_SHAPE_REPRESENTATION('',(#1141),#1149);
#1157=PRODUCT_DEFINITION('design','',#1156,#1153);
#1158=PRODUCT_DEFINITION_SHAPE('','SHAPE FOR LED_BUTTON_BASE.',#1157);
#1159=SHAPE_DEFINITION_REPRESENTATION(#1158,#1150);
ENDSEC;
END-ISO-10303-21;
