ISO-10303-21;
HEADER;
FILE_DESCRIPTION((''),'2;1');
FILE_NAME('LED_BUTTON_ENDCAP','2024-11-08T11:37:59',('d.digloria'),(''),
'CREO PARAMETRIC BY PTC INC, 2020053','CREO PARAMETRIC BY PTC INC, 2020053','');
FILE_SCHEMA(('CONFIG_CONTROL_DESIGN'));
ENDSEC;
DATA;
#2=DIRECTION('',(0.E0,0.E0,1.E0));
#3=VECTOR('',#2,2.1E1);
#4=CARTESIAN_POINT('',(-1.05E1,0.E0,-1.05E1));
#5=LINE('',#4,#3);
#6=DIRECTION('',(1.E0,0.E0,0.E0));
#7=VECTOR('',#6,2.1E1);
#8=CARTESIAN_POINT('',(-1.05E1,0.E0,1.05E1));
#9=LINE('',#8,#7);
#10=DIRECTION('',(0.E0,0.E0,-1.E0));
#11=VECTOR('',#10,2.1E1);
#12=CARTESIAN_POINT('',(1.05E1,0.E0,1.05E1));
#13=LINE('',#12,#11);
#14=DIRECTION('',(-1.E0,0.E0,0.E0));
#15=VECTOR('',#14,2.1E1);
#16=CARTESIAN_POINT('',(1.05E1,0.E0,-1.05E1));
#17=LINE('',#16,#15);
#18=DIRECTION('',(0.E0,0.E0,-1.E0));
#19=VECTOR('',#18,3.5E0);
#20=CARTESIAN_POINT('',(-6.E0,0.E0,6.E0));
#21=LINE('',#20,#19);
#22=DIRECTION('',(1.E0,0.E0,0.E0));
#23=VECTOR('',#22,1.2E1);
#24=CARTESIAN_POINT('',(-6.E0,0.E0,2.5E0));
#25=LINE('',#24,#23);
#26=DIRECTION('',(0.E0,0.E0,1.E0));
#27=VECTOR('',#26,3.5E0);
#28=CARTESIAN_POINT('',(6.E0,0.E0,2.5E0));
#29=LINE('',#28,#27);
#30=DIRECTION('',(-1.E0,0.E0,0.E0));
#31=VECTOR('',#30,1.2E1);
#32=CARTESIAN_POINT('',(6.E0,0.E0,6.E0));
#33=LINE('',#32,#31);
#34=DIRECTION('',(1.E0,0.E0,0.E0));
#35=VECTOR('',#34,1.2E1);
#36=CARTESIAN_POINT('',(-6.E0,0.E0,-6.E0));
#37=LINE('',#36,#35);
#38=DIRECTION('',(0.E0,0.E0,1.E0));
#39=VECTOR('',#38,3.5E0);
#40=CARTESIAN_POINT('',(6.E0,0.E0,-6.E0));
#41=LINE('',#40,#39);
#42=DIRECTION('',(-1.E0,0.E0,0.E0));
#43=VECTOR('',#42,1.2E1);
#44=CARTESIAN_POINT('',(6.E0,0.E0,-2.5E0));
#45=LINE('',#44,#43);
#46=DIRECTION('',(0.E0,0.E0,-1.E0));
#47=VECTOR('',#46,3.5E0);
#48=CARTESIAN_POINT('',(-6.E0,0.E0,-2.5E0));
#49=LINE('',#48,#47);
#50=DIRECTION('',(0.E0,1.E0,0.E0));
#51=VECTOR('',#50,1.E1);
#52=CARTESIAN_POINT('',(-1.05E1,0.E0,-1.05E1));
#53=LINE('',#52,#51);
#54=DIRECTION('',(0.E0,1.E0,0.E0));
#55=VECTOR('',#54,1.E1);
#56=CARTESIAN_POINT('',(1.05E1,0.E0,-1.05E1));
#57=LINE('',#56,#55);
#58=DIRECTION('',(0.E0,1.E0,0.E0));
#59=VECTOR('',#58,1.E1);
#60=CARTESIAN_POINT('',(1.05E1,0.E0,1.05E1));
#61=LINE('',#60,#59);
#62=DIRECTION('',(0.E0,1.E0,0.E0));
#63=VECTOR('',#62,1.E1);
#64=CARTESIAN_POINT('',(-1.05E1,0.E0,1.05E1));
#65=LINE('',#64,#63);
#66=DIRECTION('',(0.E0,0.E0,1.E0));
#67=VECTOR('',#66,2.1E1);
#68=CARTESIAN_POINT('',(-1.05E1,1.E1,-1.05E1));
#69=LINE('',#68,#67);
#70=DIRECTION('',(-1.E0,0.E0,0.E0));
#71=VECTOR('',#70,2.1E1);
#72=CARTESIAN_POINT('',(1.05E1,1.E1,-1.05E1));
#73=LINE('',#72,#71);
#74=DIRECTION('',(0.E0,0.E0,-1.E0));
#75=VECTOR('',#74,2.1E1);
#76=CARTESIAN_POINT('',(1.05E1,1.E1,1.05E1));
#77=LINE('',#76,#75);
#78=DIRECTION('',(1.E0,0.E0,0.E0));
#79=VECTOR('',#78,2.1E1);
#80=CARTESIAN_POINT('',(-1.05E1,1.E1,1.05E1));
#81=LINE('',#80,#79);
#82=DIRECTION('',(0.E0,0.E0,1.E0));
#83=VECTOR('',#82,1.51E1);
#84=CARTESIAN_POINT('',(-7.55E0,1.E1,-7.55E0));
#85=LINE('',#84,#83);
#86=DIRECTION('',(1.E0,0.E0,0.E0));
#87=VECTOR('',#86,1.51E1);
#88=CARTESIAN_POINT('',(-7.55E0,1.E1,7.55E0));
#89=LINE('',#88,#87);
#90=DIRECTION('',(0.E0,0.E0,-1.E0));
#91=VECTOR('',#90,1.51E1);
#92=CARTESIAN_POINT('',(7.55E0,1.E1,7.55E0));
#93=LINE('',#92,#91);
#94=DIRECTION('',(-1.E0,0.E0,0.E0));
#95=VECTOR('',#94,1.51E1);
#96=CARTESIAN_POINT('',(7.55E0,1.E1,-7.55E0));
#97=LINE('',#96,#95);
#98=DIRECTION('',(0.E0,-1.E0,0.E0));
#99=VECTOR('',#98,7.E0);
#100=CARTESIAN_POINT('',(-7.55E0,1.E1,-7.55E0));
#101=LINE('',#100,#99);
#102=DIRECTION('',(0.E0,-1.E0,0.E0));
#103=VECTOR('',#102,7.E0);
#104=CARTESIAN_POINT('',(7.55E0,1.E1,-7.55E0));
#105=LINE('',#104,#103);
#106=DIRECTION('',(0.E0,-1.E0,0.E0));
#107=VECTOR('',#106,7.E0);
#108=CARTESIAN_POINT('',(7.55E0,1.E1,7.55E0));
#109=LINE('',#108,#107);
#110=DIRECTION('',(0.E0,-1.E0,0.E0));
#111=VECTOR('',#110,7.E0);
#112=CARTESIAN_POINT('',(-7.55E0,1.E1,7.55E0));
#113=LINE('',#112,#111);
#114=DIRECTION('',(0.E0,0.E0,1.E0));
#115=VECTOR('',#114,1.51E1);
#116=CARTESIAN_POINT('',(-7.55E0,3.E0,-7.55E0));
#117=LINE('',#116,#115);
#118=DIRECTION('',(-1.E0,0.E0,0.E0));
#119=VECTOR('',#118,1.51E1);
#120=CARTESIAN_POINT('',(7.55E0,3.E0,-7.55E0));
#121=LINE('',#120,#119);
#122=DIRECTION('',(0.E0,0.E0,-1.E0));
#123=VECTOR('',#122,1.51E1);
#124=CARTESIAN_POINT('',(7.55E0,3.E0,7.55E0));
#125=LINE('',#124,#123);
#126=DIRECTION('',(1.E0,0.E0,0.E0));
#127=VECTOR('',#126,1.51E1);
#128=CARTESIAN_POINT('',(-7.55E0,3.E0,7.55E0));
#129=LINE('',#128,#127);
#130=DIRECTION('',(0.E0,0.E0,-1.E0));
#131=VECTOR('',#130,3.5E0);
#132=CARTESIAN_POINT('',(-6.E0,3.E0,6.E0));
#133=LINE('',#132,#131);
#134=DIRECTION('',(-1.E0,0.E0,0.E0));
#135=VECTOR('',#134,1.2E1);
#136=CARTESIAN_POINT('',(6.E0,3.E0,6.E0));
#137=LINE('',#136,#135);
#138=DIRECTION('',(0.E0,0.E0,1.E0));
#139=VECTOR('',#138,3.5E0);
#140=CARTESIAN_POINT('',(6.E0,3.E0,2.5E0));
#141=LINE('',#140,#139);
#142=DIRECTION('',(1.E0,0.E0,0.E0));
#143=VECTOR('',#142,1.2E1);
#144=CARTESIAN_POINT('',(-6.E0,3.E0,2.5E0));
#145=LINE('',#144,#143);
#146=DIRECTION('',(1.E0,0.E0,0.E0));
#147=VECTOR('',#146,1.2E1);
#148=CARTESIAN_POINT('',(-6.E0,3.E0,-6.E0));
#149=LINE('',#148,#147);
#150=DIRECTION('',(0.E0,0.E0,-1.E0));
#151=VECTOR('',#150,3.5E0);
#152=CARTESIAN_POINT('',(-6.E0,3.E0,-2.5E0));
#153=LINE('',#152,#151);
#154=DIRECTION('',(-1.E0,0.E0,0.E0));
#155=VECTOR('',#154,1.2E1);
#156=CARTESIAN_POINT('',(6.E0,3.E0,-2.5E0));
#157=LINE('',#156,#155);
#158=DIRECTION('',(0.E0,0.E0,1.E0));
#159=VECTOR('',#158,3.5E0);
#160=CARTESIAN_POINT('',(6.E0,3.E0,-6.E0));
#161=LINE('',#160,#159);
#162=DIRECTION('',(0.E0,1.E0,0.E0));
#163=VECTOR('',#162,3.E0);
#164=CARTESIAN_POINT('',(-6.E0,0.E0,6.E0));
#165=LINE('',#164,#163);
#166=DIRECTION('',(0.E0,1.E0,0.E0));
#167=VECTOR('',#166,3.E0);
#168=CARTESIAN_POINT('',(6.E0,0.E0,6.E0));
#169=LINE('',#168,#167);
#170=DIRECTION('',(0.E0,1.E0,0.E0));
#171=VECTOR('',#170,3.E0);
#172=CARTESIAN_POINT('',(6.E0,0.E0,2.5E0));
#173=LINE('',#172,#171);
#174=DIRECTION('',(0.E0,1.E0,0.E0));
#175=VECTOR('',#174,3.E0);
#176=CARTESIAN_POINT('',(-6.E0,0.E0,2.5E0));
#177=LINE('',#176,#175);
#178=DIRECTION('',(0.E0,1.E0,0.E0));
#179=VECTOR('',#178,3.E0);
#180=CARTESIAN_POINT('',(-6.E0,0.E0,-6.E0));
#181=LINE('',#180,#179);
#182=DIRECTION('',(0.E0,1.E0,0.E0));
#183=VECTOR('',#182,3.E0);
#184=CARTESIAN_POINT('',(-6.E0,0.E0,-2.5E0));
#185=LINE('',#184,#183);
#186=DIRECTION('',(0.E0,1.E0,0.E0));
#187=VECTOR('',#186,3.E0);
#188=CARTESIAN_POINT('',(6.E0,0.E0,-2.5E0));
#189=LINE('',#188,#187);
#190=DIRECTION('',(0.E0,1.E0,0.E0));
#191=VECTOR('',#190,3.E0);
#192=CARTESIAN_POINT('',(6.E0,0.E0,-6.E0));
#193=LINE('',#192,#191);
#194=CARTESIAN_POINT('',(-1.05E1,0.E0,-1.05E1));
#195=CARTESIAN_POINT('',(-1.05E1,0.E0,1.05E1));
#196=VERTEX_POINT('',#194);
#197=VERTEX_POINT('',#195);
#198=CARTESIAN_POINT('',(1.05E1,0.E0,1.05E1));
#199=VERTEX_POINT('',#198);
#200=CARTESIAN_POINT('',(1.05E1,0.E0,-1.05E1));
#201=VERTEX_POINT('',#200);
#202=CARTESIAN_POINT('',(-1.05E1,1.E1,-1.05E1));
#203=CARTESIAN_POINT('',(-1.05E1,1.E1,1.05E1));
#204=VERTEX_POINT('',#202);
#205=VERTEX_POINT('',#203);
#206=CARTESIAN_POINT('',(1.05E1,1.E1,1.05E1));
#207=VERTEX_POINT('',#206);
#208=CARTESIAN_POINT('',(1.05E1,1.E1,-1.05E1));
#209=VERTEX_POINT('',#208);
#210=CARTESIAN_POINT('',(-7.55E0,3.E0,-7.55E0));
#211=CARTESIAN_POINT('',(-7.55E0,3.E0,7.55E0));
#212=VERTEX_POINT('',#210);
#213=VERTEX_POINT('',#211);
#214=CARTESIAN_POINT('',(7.55E0,3.E0,7.55E0));
#215=VERTEX_POINT('',#214);
#216=CARTESIAN_POINT('',(7.55E0,3.E0,-7.55E0));
#217=VERTEX_POINT('',#216);
#218=CARTESIAN_POINT('',(-7.55E0,1.E1,-7.55E0));
#219=CARTESIAN_POINT('',(-7.55E0,1.E1,7.55E0));
#220=VERTEX_POINT('',#218);
#221=VERTEX_POINT('',#219);
#222=CARTESIAN_POINT('',(7.55E0,1.E1,7.55E0));
#223=VERTEX_POINT('',#222);
#224=CARTESIAN_POINT('',(7.55E0,1.E1,-7.55E0));
#225=VERTEX_POINT('',#224);
#226=CARTESIAN_POINT('',(-6.E0,0.E0,6.E0));
#227=CARTESIAN_POINT('',(-6.E0,0.E0,2.5E0));
#228=VERTEX_POINT('',#226);
#229=VERTEX_POINT('',#227);
#230=CARTESIAN_POINT('',(6.E0,0.E0,2.5E0));
#231=VERTEX_POINT('',#230);
#232=CARTESIAN_POINT('',(6.E0,0.E0,6.E0));
#233=VERTEX_POINT('',#232);
#234=CARTESIAN_POINT('',(-6.E0,0.E0,-6.E0));
#235=CARTESIAN_POINT('',(6.E0,0.E0,-6.E0));
#236=VERTEX_POINT('',#234);
#237=VERTEX_POINT('',#235);
#238=CARTESIAN_POINT('',(6.E0,0.E0,-2.5E0));
#239=VERTEX_POINT('',#238);
#240=CARTESIAN_POINT('',(-6.E0,0.E0,-2.5E0));
#241=VERTEX_POINT('',#240);
#242=CARTESIAN_POINT('',(-6.E0,3.E0,6.E0));
#243=CARTESIAN_POINT('',(-6.E0,3.E0,2.5E0));
#244=VERTEX_POINT('',#242);
#245=VERTEX_POINT('',#243);
#246=CARTESIAN_POINT('',(6.E0,3.E0,2.5E0));
#247=VERTEX_POINT('',#246);
#248=CARTESIAN_POINT('',(6.E0,3.E0,6.E0));
#249=VERTEX_POINT('',#248);
#250=CARTESIAN_POINT('',(-6.E0,3.E0,-6.E0));
#251=CARTESIAN_POINT('',(6.E0,3.E0,-6.E0));
#252=VERTEX_POINT('',#250);
#253=VERTEX_POINT('',#251);
#254=CARTESIAN_POINT('',(6.E0,3.E0,-2.5E0));
#255=VERTEX_POINT('',#254);
#256=CARTESIAN_POINT('',(-6.E0,3.E0,-2.5E0));
#257=VERTEX_POINT('',#256);
#258=CARTESIAN_POINT('',(0.E0,0.E0,0.E0));
#259=DIRECTION('',(0.E0,1.E0,0.E0));
#260=DIRECTION('',(1.E0,0.E0,0.E0));
#261=AXIS2_PLACEMENT_3D('',#258,#259,#260);
#262=PLANE('',#261);
#264=ORIENTED_EDGE('',*,*,#263,.T.);
#266=ORIENTED_EDGE('',*,*,#265,.T.);
#268=ORIENTED_EDGE('',*,*,#267,.T.);
#270=ORIENTED_EDGE('',*,*,#269,.T.);
#271=EDGE_LOOP('',(#264,#266,#268,#270));
#272=FACE_OUTER_BOUND('',#271,.F.);
#274=ORIENTED_EDGE('',*,*,#273,.T.);
#276=ORIENTED_EDGE('',*,*,#275,.T.);
#278=ORIENTED_EDGE('',*,*,#277,.T.);
#280=ORIENTED_EDGE('',*,*,#279,.T.);
#281=EDGE_LOOP('',(#274,#276,#278,#280));
#282=FACE_BOUND('',#281,.F.);
#284=ORIENTED_EDGE('',*,*,#283,.T.);
#286=ORIENTED_EDGE('',*,*,#285,.T.);
#288=ORIENTED_EDGE('',*,*,#287,.T.);
#290=ORIENTED_EDGE('',*,*,#289,.T.);
#291=EDGE_LOOP('',(#284,#286,#288,#290));
#292=FACE_BOUND('',#291,.F.);
#293=ADVANCED_FACE('',(#272,#282,#292),#262,.F.);
#294=CARTESIAN_POINT('',(-1.05E1,0.E0,-1.05E1));
#295=DIRECTION('',(-1.E0,0.E0,0.E0));
#296=DIRECTION('',(0.E0,0.E0,1.E0));
#297=AXIS2_PLACEMENT_3D('',#294,#295,#296);
#298=PLANE('',#297);
#299=ORIENTED_EDGE('',*,*,#263,.F.);
#301=ORIENTED_EDGE('',*,*,#300,.T.);
#303=ORIENTED_EDGE('',*,*,#302,.T.);
#305=ORIENTED_EDGE('',*,*,#304,.F.);
#306=EDGE_LOOP('',(#299,#301,#303,#305));
#307=FACE_OUTER_BOUND('',#306,.F.);
#308=ADVANCED_FACE('',(#307),#298,.T.);
#309=CARTESIAN_POINT('',(1.05E1,0.E0,-1.05E1));
#310=DIRECTION('',(0.E0,0.E0,-1.E0));
#311=DIRECTION('',(-1.E0,0.E0,0.E0));
#312=AXIS2_PLACEMENT_3D('',#309,#310,#311);
#313=PLANE('',#312);
#314=ORIENTED_EDGE('',*,*,#269,.F.);
#316=ORIENTED_EDGE('',*,*,#315,.T.);
#318=ORIENTED_EDGE('',*,*,#317,.T.);
#319=ORIENTED_EDGE('',*,*,#300,.F.);
#320=EDGE_LOOP('',(#314,#316,#318,#319));
#321=FACE_OUTER_BOUND('',#320,.F.);
#322=ADVANCED_FACE('',(#321),#313,.T.);
#323=CARTESIAN_POINT('',(1.05E1,0.E0,1.05E1));
#324=DIRECTION('',(1.E0,0.E0,0.E0));
#325=DIRECTION('',(0.E0,0.E0,-1.E0));
#326=AXIS2_PLACEMENT_3D('',#323,#324,#325);
#327=PLANE('',#326);
#328=ORIENTED_EDGE('',*,*,#267,.F.);
#330=ORIENTED_EDGE('',*,*,#329,.T.);
#332=ORIENTED_EDGE('',*,*,#331,.T.);
#333=ORIENTED_EDGE('',*,*,#315,.F.);
#334=EDGE_LOOP('',(#328,#330,#332,#333));
#335=FACE_OUTER_BOUND('',#334,.F.);
#336=ADVANCED_FACE('',(#335),#327,.T.);
#337=CARTESIAN_POINT('',(-1.05E1,0.E0,1.05E1));
#338=DIRECTION('',(0.E0,0.E0,1.E0));
#339=DIRECTION('',(1.E0,0.E0,0.E0));
#340=AXIS2_PLACEMENT_3D('',#337,#338,#339);
#341=PLANE('',#340);
#342=ORIENTED_EDGE('',*,*,#265,.F.);
#343=ORIENTED_EDGE('',*,*,#304,.T.);
#345=ORIENTED_EDGE('',*,*,#344,.T.);
#346=ORIENTED_EDGE('',*,*,#329,.F.);
#347=EDGE_LOOP('',(#342,#343,#345,#346));
#348=FACE_OUTER_BOUND('',#347,.F.);
#349=ADVANCED_FACE('',(#348),#341,.T.);
#350=CARTESIAN_POINT('',(0.E0,1.E1,0.E0));
#351=DIRECTION('',(0.E0,1.E0,0.E0));
#352=DIRECTION('',(1.E0,0.E0,0.E0));
#353=AXIS2_PLACEMENT_3D('',#350,#351,#352);
#354=PLANE('',#353);
#355=ORIENTED_EDGE('',*,*,#302,.F.);
#356=ORIENTED_EDGE('',*,*,#317,.F.);
#357=ORIENTED_EDGE('',*,*,#331,.F.);
#358=ORIENTED_EDGE('',*,*,#344,.F.);
#359=EDGE_LOOP('',(#355,#356,#357,#358));
#360=FACE_OUTER_BOUND('',#359,.F.);
#362=ORIENTED_EDGE('',*,*,#361,.T.);
#364=ORIENTED_EDGE('',*,*,#363,.T.);
#366=ORIENTED_EDGE('',*,*,#365,.T.);
#368=ORIENTED_EDGE('',*,*,#367,.T.);
#369=EDGE_LOOP('',(#362,#364,#366,#368));
#370=FACE_BOUND('',#369,.F.);
#371=ADVANCED_FACE('',(#360,#370),#354,.T.);
#372=CARTESIAN_POINT('',(-7.55E0,1.E1,-7.55E0));
#373=DIRECTION('',(-1.E0,0.E0,0.E0));
#374=DIRECTION('',(0.E0,0.E0,1.E0));
#375=AXIS2_PLACEMENT_3D('',#372,#373,#374);
#376=PLANE('',#375);
#377=ORIENTED_EDGE('',*,*,#361,.F.);
#379=ORIENTED_EDGE('',*,*,#378,.T.);
#381=ORIENTED_EDGE('',*,*,#380,.T.);
#383=ORIENTED_EDGE('',*,*,#382,.F.);
#384=EDGE_LOOP('',(#377,#379,#381,#383));
#385=FACE_OUTER_BOUND('',#384,.F.);
#386=ADVANCED_FACE('',(#385),#376,.F.);
#387=CARTESIAN_POINT('',(7.55E0,1.E1,-7.55E0));
#388=DIRECTION('',(0.E0,0.E0,-1.E0));
#389=DIRECTION('',(-1.E0,0.E0,0.E0));
#390=AXIS2_PLACEMENT_3D('',#387,#388,#389);
#391=PLANE('',#390);
#392=ORIENTED_EDGE('',*,*,#367,.F.);
#394=ORIENTED_EDGE('',*,*,#393,.T.);
#396=ORIENTED_EDGE('',*,*,#395,.T.);
#397=ORIENTED_EDGE('',*,*,#378,.F.);
#398=EDGE_LOOP('',(#392,#394,#396,#397));
#399=FACE_OUTER_BOUND('',#398,.F.);
#400=ADVANCED_FACE('',(#399),#391,.F.);
#401=CARTESIAN_POINT('',(7.55E0,1.E1,7.55E0));
#402=DIRECTION('',(1.E0,0.E0,0.E0));
#403=DIRECTION('',(0.E0,0.E0,-1.E0));
#404=AXIS2_PLACEMENT_3D('',#401,#402,#403);
#405=PLANE('',#404);
#406=ORIENTED_EDGE('',*,*,#365,.F.);
#408=ORIENTED_EDGE('',*,*,#407,.T.);
#410=ORIENTED_EDGE('',*,*,#409,.T.);
#411=ORIENTED_EDGE('',*,*,#393,.F.);
#412=EDGE_LOOP('',(#406,#408,#410,#411));
#413=FACE_OUTER_BOUND('',#412,.F.);
#414=ADVANCED_FACE('',(#413),#405,.F.);
#415=CARTESIAN_POINT('',(-7.55E0,1.E1,7.55E0));
#416=DIRECTION('',(0.E0,0.E0,1.E0));
#417=DIRECTION('',(1.E0,0.E0,0.E0));
#418=AXIS2_PLACEMENT_3D('',#415,#416,#417);
#419=PLANE('',#418);
#420=ORIENTED_EDGE('',*,*,#363,.F.);
#421=ORIENTED_EDGE('',*,*,#382,.T.);
#423=ORIENTED_EDGE('',*,*,#422,.T.);
#424=ORIENTED_EDGE('',*,*,#407,.F.);
#425=EDGE_LOOP('',(#420,#421,#423,#424));
#426=FACE_OUTER_BOUND('',#425,.F.);
#427=ADVANCED_FACE('',(#426),#419,.F.);
#428=CARTESIAN_POINT('',(0.E0,3.E0,0.E0));
#429=DIRECTION('',(0.E0,1.E0,0.E0));
#430=DIRECTION('',(1.E0,0.E0,0.E0));
#431=AXIS2_PLACEMENT_3D('',#428,#429,#430);
#432=PLANE('',#431);
#433=ORIENTED_EDGE('',*,*,#380,.F.);
#434=ORIENTED_EDGE('',*,*,#395,.F.);
#435=ORIENTED_EDGE('',*,*,#409,.F.);
#436=ORIENTED_EDGE('',*,*,#422,.F.);
#437=EDGE_LOOP('',(#433,#434,#435,#436));
#438=FACE_OUTER_BOUND('',#437,.F.);
#440=ORIENTED_EDGE('',*,*,#439,.F.);
#442=ORIENTED_EDGE('',*,*,#441,.F.);
#444=ORIENTED_EDGE('',*,*,#443,.F.);
#446=ORIENTED_EDGE('',*,*,#445,.F.);
#447=EDGE_LOOP('',(#440,#442,#444,#446));
#448=FACE_BOUND('',#447,.F.);
#450=ORIENTED_EDGE('',*,*,#449,.F.);
#452=ORIENTED_EDGE('',*,*,#451,.F.);
#454=ORIENTED_EDGE('',*,*,#453,.F.);
#456=ORIENTED_EDGE('',*,*,#455,.F.);
#457=EDGE_LOOP('',(#450,#452,#454,#456));
#458=FACE_BOUND('',#457,.F.);
#459=ADVANCED_FACE('',(#438,#448,#458),#432,.T.);
#460=CARTESIAN_POINT('',(-6.E0,0.E0,6.E0));
#461=DIRECTION('',(-1.E0,0.E0,0.E0));
#462=DIRECTION('',(0.E0,0.E0,-1.E0));
#463=AXIS2_PLACEMENT_3D('',#460,#461,#462);
#464=PLANE('',#463);
#465=ORIENTED_EDGE('',*,*,#273,.F.);
#467=ORIENTED_EDGE('',*,*,#466,.T.);
#468=ORIENTED_EDGE('',*,*,#439,.T.);
#470=ORIENTED_EDGE('',*,*,#469,.F.);
#471=EDGE_LOOP('',(#465,#467,#468,#470));
#472=FACE_OUTER_BOUND('',#471,.F.);
#473=ADVANCED_FACE('',(#472),#464,.F.);
#474=CARTESIAN_POINT('',(6.E0,0.E0,6.E0));
#475=DIRECTION('',(0.E0,0.E0,1.E0));
#476=DIRECTION('',(-1.E0,0.E0,0.E0));
#477=AXIS2_PLACEMENT_3D('',#474,#475,#476);
#478=PLANE('',#477);
#479=ORIENTED_EDGE('',*,*,#279,.F.);
#481=ORIENTED_EDGE('',*,*,#480,.T.);
#482=ORIENTED_EDGE('',*,*,#441,.T.);
#483=ORIENTED_EDGE('',*,*,#466,.F.);
#484=EDGE_LOOP('',(#479,#481,#482,#483));
#485=FACE_OUTER_BOUND('',#484,.F.);
#486=ADVANCED_FACE('',(#485),#478,.F.);
#487=CARTESIAN_POINT('',(6.E0,0.E0,2.5E0));
#488=DIRECTION('',(1.E0,0.E0,0.E0));
#489=DIRECTION('',(0.E0,0.E0,1.E0));
#490=AXIS2_PLACEMENT_3D('',#487,#488,#489);
#491=PLANE('',#490);
#492=ORIENTED_EDGE('',*,*,#277,.F.);
#494=ORIENTED_EDGE('',*,*,#493,.T.);
#495=ORIENTED_EDGE('',*,*,#443,.T.);
#496=ORIENTED_EDGE('',*,*,#480,.F.);
#497=EDGE_LOOP('',(#492,#494,#495,#496));
#498=FACE_OUTER_BOUND('',#497,.F.);
#499=ADVANCED_FACE('',(#498),#491,.F.);
#500=CARTESIAN_POINT('',(-6.E0,0.E0,2.5E0));
#501=DIRECTION('',(0.E0,0.E0,-1.E0));
#502=DIRECTION('',(1.E0,0.E0,0.E0));
#503=AXIS2_PLACEMENT_3D('',#500,#501,#502);
#504=PLANE('',#503);
#505=ORIENTED_EDGE('',*,*,#275,.F.);
#506=ORIENTED_EDGE('',*,*,#469,.T.);
#507=ORIENTED_EDGE('',*,*,#445,.T.);
#508=ORIENTED_EDGE('',*,*,#493,.F.);
#509=EDGE_LOOP('',(#505,#506,#507,#508));
#510=FACE_OUTER_BOUND('',#509,.F.);
#511=ADVANCED_FACE('',(#510),#504,.F.);
#512=CARTESIAN_POINT('',(-6.E0,0.E0,-6.E0));
#513=DIRECTION('',(0.E0,0.E0,-1.E0));
#514=DIRECTION('',(1.E0,0.E0,0.E0));
#515=AXIS2_PLACEMENT_3D('',#512,#513,#514);
#516=PLANE('',#515);
#517=ORIENTED_EDGE('',*,*,#283,.F.);
#519=ORIENTED_EDGE('',*,*,#518,.T.);
#520=ORIENTED_EDGE('',*,*,#449,.T.);
#522=ORIENTED_EDGE('',*,*,#521,.F.);
#523=EDGE_LOOP('',(#517,#519,#520,#522));
#524=FACE_OUTER_BOUND('',#523,.F.);
#525=ADVANCED_FACE('',(#524),#516,.F.);
#526=CARTESIAN_POINT('',(-6.E0,0.E0,-2.5E0));
#527=DIRECTION('',(-1.E0,0.E0,0.E0));
#528=DIRECTION('',(0.E0,0.E0,-1.E0));
#529=AXIS2_PLACEMENT_3D('',#526,#527,#528);
#530=PLANE('',#529);
#531=ORIENTED_EDGE('',*,*,#289,.F.);
#533=ORIENTED_EDGE('',*,*,#532,.T.);
#534=ORIENTED_EDGE('',*,*,#451,.T.);
#535=ORIENTED_EDGE('',*,*,#518,.F.);
#536=EDGE_LOOP('',(#531,#533,#534,#535));
#537=FACE_OUTER_BOUND('',#536,.F.);
#538=ADVANCED_FACE('',(#537),#530,.F.);
#539=CARTESIAN_POINT('',(6.E0,0.E0,-2.5E0));
#540=DIRECTION('',(0.E0,0.E0,1.E0));
#541=DIRECTION('',(-1.E0,0.E0,0.E0));
#542=AXIS2_PLACEMENT_3D('',#539,#540,#541);
#543=PLANE('',#542);
#544=ORIENTED_EDGE('',*,*,#287,.F.);
#546=ORIENTED_EDGE('',*,*,#545,.T.);
#547=ORIENTED_EDGE('',*,*,#453,.T.);
#548=ORIENTED_EDGE('',*,*,#532,.F.);
#549=EDGE_LOOP('',(#544,#546,#547,#548));
#550=FACE_OUTER_BOUND('',#549,.F.);
#551=ADVANCED_FACE('',(#550),#543,.F.);
#552=CARTESIAN_POINT('',(6.E0,0.E0,-6.E0));
#553=DIRECTION('',(1.E0,0.E0,0.E0));
#554=DIRECTION('',(0.E0,0.E0,1.E0));
#555=AXIS2_PLACEMENT_3D('',#552,#553,#554);
#556=PLANE('',#555);
#557=ORIENTED_EDGE('',*,*,#285,.F.);
#558=ORIENTED_EDGE('',*,*,#521,.T.);
#559=ORIENTED_EDGE('',*,*,#455,.T.);
#560=ORIENTED_EDGE('',*,*,#545,.F.);
#561=EDGE_LOOP('',(#557,#558,#559,#560));
#562=FACE_OUTER_BOUND('',#561,.F.);
#563=ADVANCED_FACE('',(#562),#556,.F.);
#567=DIMENSIONAL_EXPONENTS(0.E0,0.E0,0.E0,0.E0,0.E0,0.E0,0.E0);
#569=PLANE_ANGLE_MEASURE_WITH_UNIT(PLANE_ANGLE_MEASURE(1.745329251994E-2),#568);
#570=(CONVERSION_BASED_UNIT('DEGREE',#569)NAMED_UNIT(*)PLANE_ANGLE_UNIT());
#572=UNCERTAINTY_MEASURE_WITH_UNIT(LENGTH_MEASURE(3.133562575682E-3),#566,
'closure',
'Maximum model space distance between geometric entities at asserted connectivities');
#573=(GEOMETRIC_REPRESENTATION_CONTEXT(3)GLOBAL_UNCERTAINTY_ASSIGNED_CONTEXT((
#572))GLOBAL_UNIT_ASSIGNED_CONTEXT((#566,#570,#571))REPRESENTATION_CONTEXT
('ID1','3'));
#575=APPLICATION_CONTEXT(
'CONFIGURATION CONTROLLED 3D DESIGNS OF MECHANICAL PARTS AND ASSEMBLIES');
#576=APPLICATION_PROTOCOL_DEFINITION('international standard',
'config_control_design',1994,#575);
#577=DESIGN_CONTEXT('',#575,'design');
#578=MECHANICAL_CONTEXT('',#575,'mechanical');
#579=PRODUCT('LED_BUTTON_ENDCAP','LED_BUTTON_ENDCAP','NOT SPECIFIED',(#578));
#580=PRODUCT_DEFINITION_FORMATION_WITH_SPECIFIED_SOURCE('12','LAST_VERSION',
#579,.MADE.);
#584=PRODUCT_CATEGORY('part','');
#585=PRODUCT_RELATED_PRODUCT_CATEGORY('detail','',(#579));
#586=PRODUCT_CATEGORY_RELATIONSHIP('','',#584,#585);
#587=SECURITY_CLASSIFICATION_LEVEL('unclassified');
#588=SECURITY_CLASSIFICATION('','',#587);
#589=CC_DESIGN_SECURITY_CLASSIFICATION(#588,(#580));
#590=APPROVAL_STATUS('approved');
#591=APPROVAL(#590,'');
#592=CC_DESIGN_APPROVAL(#591,(#588,#580,#581));
#593=CALENDAR_DATE(124,8,11);
#594=COORDINATED_UNIVERSAL_TIME_OFFSET(1,0,.AHEAD.);
#595=LOCAL_TIME(11,37,5.9E1,#594);
#596=DATE_AND_TIME(#593,#595);
#597=APPROVAL_DATE_TIME(#596,#591);
#598=DATE_TIME_ROLE('creation_date');
#599=CC_DESIGN_DATE_AND_TIME_ASSIGNMENT(#596,#598,(#581));
#600=DATE_TIME_ROLE('classification_date');
#601=CC_DESIGN_DATE_AND_TIME_ASSIGNMENT(#596,#600,(#588));
#602=PERSON('UNSPECIFIED','UNSPECIFIED',$,$,$,$);
#603=ORGANIZATION('UNSPECIFIED','UNSPECIFIED','UNSPECIFIED');
#604=PERSON_AND_ORGANIZATION(#602,#603);
#605=APPROVAL_ROLE('approver');
#606=APPROVAL_PERSON_ORGANIZATION(#604,#591,#605);
#607=PERSON_AND_ORGANIZATION_ROLE('creator');
#608=CC_DESIGN_PERSON_AND_ORGANIZATION_ASSIGNMENT(#604,#607,(#580,#581));
#609=PERSON_AND_ORGANIZATION_ROLE('design_supplier');
#610=CC_DESIGN_PERSON_AND_ORGANIZATION_ASSIGNMENT(#604,#609,(#580));
#611=PERSON_AND_ORGANIZATION_ROLE('classification_officer');
#612=CC_DESIGN_PERSON_AND_ORGANIZATION_ASSIGNMENT(#604,#611,(#588));
#613=PERSON_AND_ORGANIZATION_ROLE('design_owner');
#614=CC_DESIGN_PERSON_AND_ORGANIZATION_ASSIGNMENT(#604,#613,(#579));
#263=EDGE_CURVE('',#196,#197,#5,.T.);
#265=EDGE_CURVE('',#197,#199,#9,.T.);
#267=EDGE_CURVE('',#199,#201,#13,.T.);
#269=EDGE_CURVE('',#201,#196,#17,.T.);
#273=EDGE_CURVE('',#228,#229,#21,.T.);
#275=EDGE_CURVE('',#229,#231,#25,.T.);
#277=EDGE_CURVE('',#231,#233,#29,.T.);
#279=EDGE_CURVE('',#233,#228,#33,.T.);
#283=EDGE_CURVE('',#236,#237,#37,.T.);
#285=EDGE_CURVE('',#237,#239,#41,.T.);
#287=EDGE_CURVE('',#239,#241,#45,.T.);
#289=EDGE_CURVE('',#241,#236,#49,.T.);
#300=EDGE_CURVE('',#196,#204,#53,.T.);
#302=EDGE_CURVE('',#204,#205,#69,.T.);
#304=EDGE_CURVE('',#197,#205,#65,.T.);
#315=EDGE_CURVE('',#201,#209,#57,.T.);
#317=EDGE_CURVE('',#209,#204,#73,.T.);
#329=EDGE_CURVE('',#199,#207,#61,.T.);
#331=EDGE_CURVE('',#207,#209,#77,.T.);
#344=EDGE_CURVE('',#205,#207,#81,.T.);
#361=EDGE_CURVE('',#220,#221,#85,.T.);
#363=EDGE_CURVE('',#221,#223,#89,.T.);
#365=EDGE_CURVE('',#223,#225,#93,.T.);
#367=EDGE_CURVE('',#225,#220,#97,.T.);
#378=EDGE_CURVE('',#220,#212,#101,.T.);
#380=EDGE_CURVE('',#212,#213,#117,.T.);
#382=EDGE_CURVE('',#221,#213,#113,.T.);
#393=EDGE_CURVE('',#225,#217,#105,.T.);
#395=EDGE_CURVE('',#217,#212,#121,.T.);
#407=EDGE_CURVE('',#223,#215,#109,.T.);
#409=EDGE_CURVE('',#215,#217,#125,.T.);
#422=EDGE_CURVE('',#213,#215,#129,.T.);
#439=EDGE_CURVE('',#244,#245,#133,.T.);
#441=EDGE_CURVE('',#249,#244,#137,.T.);
#443=EDGE_CURVE('',#247,#249,#141,.T.);
#445=EDGE_CURVE('',#245,#247,#145,.T.);
#449=EDGE_CURVE('',#252,#253,#149,.T.);
#451=EDGE_CURVE('',#257,#252,#153,.T.);
#453=EDGE_CURVE('',#255,#257,#157,.T.);
#455=EDGE_CURVE('',#253,#255,#161,.T.);
#466=EDGE_CURVE('',#228,#244,#165,.T.);
#469=EDGE_CURVE('',#229,#245,#177,.T.);
#480=EDGE_CURVE('',#233,#249,#169,.T.);
#493=EDGE_CURVE('',#231,#247,#173,.T.);
#518=EDGE_CURVE('',#236,#252,#181,.T.);
#521=EDGE_CURVE('',#237,#253,#193,.T.);
#532=EDGE_CURVE('',#241,#257,#185,.T.);
#545=EDGE_CURVE('',#239,#255,#189,.T.);
#564=CLOSED_SHELL('',(#293,#308,#322,#336,#349,#371,#386,#400,#414,#427,#459,
#473,#486,#499,#511,#525,#538,#551,#563));
#565=MANIFOLD_SOLID_BREP('',#564);
#566=(LENGTH_UNIT()NAMED_UNIT(*)SI_UNIT(.MILLI.,.METRE.));
#568=(NAMED_UNIT(*)PLANE_ANGLE_UNIT()SI_UNIT($,.RADIAN.));
#571=(NAMED_UNIT(*)SI_UNIT($,.STERADIAN.)SOLID_ANGLE_UNIT());
#574=ADVANCED_BREP_SHAPE_REPRESENTATION('',(#565),#573);
#581=PRODUCT_DEFINITION('design','',#580,#577);
#582=PRODUCT_DEFINITION_SHAPE('','SHAPE FOR LED_BUTTON_ENDCAP.',#581);
#583=SHAPE_DEFINITION_REPRESENTATION(#582,#574);
ENDSEC;
END-ISO-10303-21;
