ISO-10303-21;
HEADER;
FILE_DESCRIPTION((''),'2;1');
FILE_NAME('LED_BUTTON_BTN','2024-11-07T16:32:24',('d.digloria'),(''),
'CREO PARAMETRIC BY PTC INC, 2020053','CREO PARAMETRIC BY PTC INC, 2020053','');
FILE_SCHEMA(('CONFIG_CONTROL_DESIGN'));
ENDSEC;
DATA;
#2=CARTESIAN_POINT('',(5.E0,0.E0,-5.E0));
#3=DIRECTION('',(0.E0,-1.E0,0.E0));
#4=DIRECTION('',(0.E0,0.E0,-1.E0));
#5=AXIS2_PLACEMENT_3D('',#2,#3,#4);
#7=DIRECTION('',(-1.E0,0.E0,0.E0));
#8=VECTOR('',#7,1.E1);
#9=CARTESIAN_POINT('',(5.E0,0.E0,-6.E0));
#10=LINE('',#9,#8);
#11=CARTESIAN_POINT('',(-5.E0,0.E0,-5.E0));
#12=DIRECTION('',(0.E0,-1.E0,0.E0));
#13=DIRECTION('',(-1.E0,0.E0,0.E0));
#14=AXIS2_PLACEMENT_3D('',#11,#12,#13);
#16=DIRECTION('',(0.E0,0.E0,1.E0));
#17=VECTOR('',#16,1.E1);
#18=CARTESIAN_POINT('',(-6.E0,0.E0,-5.E0));
#19=LINE('',#18,#17);
#20=CARTESIAN_POINT('',(-5.E0,0.E0,5.E0));
#21=DIRECTION('',(0.E0,-1.E0,0.E0));
#22=DIRECTION('',(0.E0,0.E0,1.E0));
#23=AXIS2_PLACEMENT_3D('',#20,#21,#22);
#25=DIRECTION('',(1.E0,0.E0,0.E0));
#26=VECTOR('',#25,1.E1);
#27=CARTESIAN_POINT('',(-5.E0,0.E0,6.E0));
#28=LINE('',#27,#26);
#29=CARTESIAN_POINT('',(5.E0,0.E0,5.E0));
#30=DIRECTION('',(0.E0,-1.E0,0.E0));
#31=DIRECTION('',(1.E0,0.E0,0.E0));
#32=AXIS2_PLACEMENT_3D('',#29,#30,#31);
#34=DIRECTION('',(0.E0,0.E0,-1.E0));
#35=VECTOR('',#34,1.E1);
#36=CARTESIAN_POINT('',(6.E0,0.E0,5.E0));
#37=LINE('',#36,#35);
#38=CARTESIAN_POINT('',(0.E0,0.E0,0.E0));
#39=DIRECTION('',(0.E0,-1.E0,0.E0));
#40=DIRECTION('',(1.E0,0.E0,0.E0));
#41=AXIS2_PLACEMENT_3D('',#38,#39,#40);
#43=CARTESIAN_POINT('',(0.E0,0.E0,0.E0));
#44=DIRECTION('',(0.E0,-1.E0,0.E0));
#45=DIRECTION('',(-1.E0,0.E0,0.E0));
#46=AXIS2_PLACEMENT_3D('',#43,#44,#45);
#48=DIRECTION('',(0.E0,-1.E0,0.E0));
#49=VECTOR('',#48,8.E0);
#50=CARTESIAN_POINT('',(6.E0,8.E0,-5.E0));
#51=LINE('',#50,#49);
#52=DIRECTION('',(0.E0,-1.E0,0.E0));
#53=VECTOR('',#52,8.E0);
#54=CARTESIAN_POINT('',(6.E0,8.E0,5.E0));
#55=LINE('',#54,#53);
#56=DIRECTION('',(0.E0,-1.E0,0.E0));
#57=VECTOR('',#56,8.E0);
#58=CARTESIAN_POINT('',(5.E0,8.E0,6.E0));
#59=LINE('',#58,#57);
#60=DIRECTION('',(0.E0,-1.E0,0.E0));
#61=VECTOR('',#60,8.E0);
#62=CARTESIAN_POINT('',(-5.E0,8.E0,6.E0));
#63=LINE('',#62,#61);
#64=DIRECTION('',(0.E0,-1.E0,0.E0));
#65=VECTOR('',#64,8.E0);
#66=CARTESIAN_POINT('',(-6.E0,8.E0,-5.E0));
#67=LINE('',#66,#65);
#68=DIRECTION('',(0.E0,-1.E0,0.E0));
#69=VECTOR('',#68,8.E0);
#70=CARTESIAN_POINT('',(-6.E0,8.E0,5.E0));
#71=LINE('',#70,#69);
#72=DIRECTION('',(0.E0,-1.E0,0.E0));
#73=VECTOR('',#72,8.E0);
#74=CARTESIAN_POINT('',(5.E0,8.E0,-6.E0));
#75=LINE('',#74,#73);
#76=DIRECTION('',(0.E0,-1.E0,0.E0));
#77=VECTOR('',#76,8.E0);
#78=CARTESIAN_POINT('',(-5.E0,8.E0,-6.E0));
#79=LINE('',#78,#77);
#80=CARTESIAN_POINT('',(0.E0,8.E0,0.E0));
#81=DIRECTION('',(0.E0,1.E0,0.E0));
#82=DIRECTION('',(1.E0,0.E0,0.E0));
#83=AXIS2_PLACEMENT_3D('',#80,#81,#82);
#85=CARTESIAN_POINT('',(0.E0,8.E0,0.E0));
#86=DIRECTION('',(0.E0,1.E0,0.E0));
#87=DIRECTION('',(-1.E0,0.E0,0.E0));
#88=AXIS2_PLACEMENT_3D('',#85,#86,#87);
#90=CARTESIAN_POINT('',(5.E0,8.E0,-5.E0));
#91=DIRECTION('',(0.E0,1.E0,0.E0));
#92=DIRECTION('',(1.E0,0.E0,0.E0));
#93=AXIS2_PLACEMENT_3D('',#90,#91,#92);
#95=DIRECTION('',(0.E0,0.E0,-1.E0));
#96=VECTOR('',#95,1.E1);
#97=CARTESIAN_POINT('',(6.E0,8.E0,5.E0));
#98=LINE('',#97,#96);
#99=CARTESIAN_POINT('',(5.E0,8.E0,5.E0));
#100=DIRECTION('',(0.E0,1.E0,0.E0));
#101=DIRECTION('',(0.E0,0.E0,1.E0));
#102=AXIS2_PLACEMENT_3D('',#99,#100,#101);
#104=DIRECTION('',(1.E0,0.E0,0.E0));
#105=VECTOR('',#104,1.E1);
#106=CARTESIAN_POINT('',(-5.E0,8.E0,6.E0));
#107=LINE('',#106,#105);
#108=CARTESIAN_POINT('',(-5.E0,8.E0,5.E0));
#109=DIRECTION('',(0.E0,1.E0,0.E0));
#110=DIRECTION('',(-1.E0,0.E0,0.E0));
#111=AXIS2_PLACEMENT_3D('',#108,#109,#110);
#113=DIRECTION('',(0.E0,0.E0,1.E0));
#114=VECTOR('',#113,1.E1);
#115=CARTESIAN_POINT('',(-6.E0,8.E0,-5.E0));
#116=LINE('',#115,#114);
#117=CARTESIAN_POINT('',(-5.E0,8.E0,-5.E0));
#118=DIRECTION('',(0.E0,1.E0,0.E0));
#119=DIRECTION('',(0.E0,0.E0,-1.E0));
#120=AXIS2_PLACEMENT_3D('',#117,#118,#119);
#122=DIRECTION('',(-1.E0,0.E0,0.E0));
#123=VECTOR('',#122,1.E1);
#124=CARTESIAN_POINT('',(5.E0,8.E0,-6.E0));
#125=LINE('',#124,#123);
#126=DIRECTION('',(0.E0,1.E0,0.E0));
#127=VECTOR('',#126,1.1E1);
#128=CARTESIAN_POINT('',(5.E0,8.E0,0.E0));
#129=LINE('',#128,#127);
#130=DIRECTION('',(0.E0,1.E0,0.E0));
#131=VECTOR('',#130,1.1E1);
#132=CARTESIAN_POINT('',(-5.E0,8.E0,0.E0));
#133=LINE('',#132,#131);
#134=CARTESIAN_POINT('',(0.E0,1.9E1,0.E0));
#135=DIRECTION('',(0.E0,1.E0,0.E0));
#136=DIRECTION('',(1.E0,0.E0,0.E0));
#137=AXIS2_PLACEMENT_3D('',#134,#135,#136);
#139=CARTESIAN_POINT('',(0.E0,1.9E1,0.E0));
#140=DIRECTION('',(0.E0,1.E0,0.E0));
#141=DIRECTION('',(-1.E0,0.E0,0.E0));
#142=AXIS2_PLACEMENT_3D('',#139,#140,#141);
#144=DIRECTION('',(0.E0,1.E0,0.E0));
#145=VECTOR('',#144,5.3E0);
#146=CARTESIAN_POINT('',(2.040747220588E0,0.E0,0.E0));
#147=LINE('',#146,#145);
#148=DIRECTION('',(0.E0,1.E0,0.E0));
#149=VECTOR('',#148,5.3E0);
#150=CARTESIAN_POINT('',(-2.040747220588E0,0.E0,0.E0));
#151=LINE('',#150,#149);
#152=CARTESIAN_POINT('',(0.E0,5.3E0,0.E0));
#153=DIRECTION('',(0.E0,-1.E0,0.E0));
#154=DIRECTION('',(1.E0,0.E0,0.E0));
#155=AXIS2_PLACEMENT_3D('',#152,#153,#154);
#157=CARTESIAN_POINT('',(0.E0,5.3E0,0.E0));
#158=DIRECTION('',(0.E0,-1.E0,0.E0));
#159=DIRECTION('',(-1.E0,0.E0,0.E0));
#160=AXIS2_PLACEMENT_3D('',#157,#158,#159);
#162=CARTESIAN_POINT('',(5.E0,1.9E1,0.E0));
#163=CARTESIAN_POINT('',(-5.E0,1.9E1,0.E0));
#164=VERTEX_POINT('',#162);
#165=VERTEX_POINT('',#163);
#166=CARTESIAN_POINT('',(5.E0,8.E0,0.E0));
#167=CARTESIAN_POINT('',(-5.E0,8.E0,0.E0));
#168=VERTEX_POINT('',#166);
#169=VERTEX_POINT('',#167);
#170=CARTESIAN_POINT('',(5.E0,0.E0,-6.E0));
#171=CARTESIAN_POINT('',(6.E0,0.E0,-5.E0));
#172=VERTEX_POINT('',#170);
#173=VERTEX_POINT('',#171);
#174=CARTESIAN_POINT('',(6.E0,8.E0,-5.E0));
#175=VERTEX_POINT('',#174);
#176=CARTESIAN_POINT('',(5.E0,8.E0,-6.E0));
#177=VERTEX_POINT('',#176);
#178=CARTESIAN_POINT('',(-6.E0,0.E0,-5.E0));
#179=CARTESIAN_POINT('',(-5.E0,0.E0,-6.E0));
#180=VERTEX_POINT('',#178);
#181=VERTEX_POINT('',#179);
#182=CARTESIAN_POINT('',(-5.E0,8.E0,-6.E0));
#183=VERTEX_POINT('',#182);
#184=CARTESIAN_POINT('',(-6.E0,8.E0,-5.E0));
#185=VERTEX_POINT('',#184);
#186=CARTESIAN_POINT('',(6.E0,0.E0,5.E0));
#187=CARTESIAN_POINT('',(5.E0,0.E0,6.E0));
#188=VERTEX_POINT('',#186);
#189=VERTEX_POINT('',#187);
#190=CARTESIAN_POINT('',(5.E0,8.E0,6.E0));
#191=VERTEX_POINT('',#190);
#192=CARTESIAN_POINT('',(6.E0,8.E0,5.E0));
#193=VERTEX_POINT('',#192);
#194=CARTESIAN_POINT('',(-5.E0,0.E0,6.E0));
#195=CARTESIAN_POINT('',(-6.E0,0.E0,5.E0));
#196=VERTEX_POINT('',#194);
#197=VERTEX_POINT('',#195);
#198=CARTESIAN_POINT('',(-6.E0,8.E0,5.E0));
#199=VERTEX_POINT('',#198);
#200=CARTESIAN_POINT('',(-5.E0,8.E0,6.E0));
#201=VERTEX_POINT('',#200);
#202=CARTESIAN_POINT('',(2.040747220588E0,5.3E0,0.E0));
#203=CARTESIAN_POINT('',(-2.040747220588E0,5.3E0,0.E0));
#204=VERTEX_POINT('',#202);
#205=VERTEX_POINT('',#203);
#206=CARTESIAN_POINT('',(2.040747220588E0,0.E0,0.E0));
#207=CARTESIAN_POINT('',(-2.040747220588E0,0.E0,0.E0));
#208=VERTEX_POINT('',#206);
#209=VERTEX_POINT('',#207);
#210=CARTESIAN_POINT('',(0.E0,0.E0,0.E0));
#211=DIRECTION('',(0.E0,1.E0,0.E0));
#212=DIRECTION('',(1.E0,0.E0,0.E0));
#213=AXIS2_PLACEMENT_3D('',#210,#211,#212);
#214=PLANE('',#213);
#216=ORIENTED_EDGE('',*,*,#215,.F.);
#218=ORIENTED_EDGE('',*,*,#217,.T.);
#220=ORIENTED_EDGE('',*,*,#219,.F.);
#222=ORIENTED_EDGE('',*,*,#221,.T.);
#224=ORIENTED_EDGE('',*,*,#223,.F.);
#226=ORIENTED_EDGE('',*,*,#225,.T.);
#228=ORIENTED_EDGE('',*,*,#227,.F.);
#230=ORIENTED_EDGE('',*,*,#229,.T.);
#231=EDGE_LOOP('',(#216,#218,#220,#222,#224,#226,#228,#230));
#232=FACE_OUTER_BOUND('',#231,.F.);
#234=ORIENTED_EDGE('',*,*,#233,.T.);
#236=ORIENTED_EDGE('',*,*,#235,.T.);
#237=EDGE_LOOP('',(#234,#236));
#238=FACE_BOUND('',#237,.F.);
#239=ADVANCED_FACE('',(#232,#238),#214,.F.);
#240=CARTESIAN_POINT('',(5.E0,4.37684E1,-5.E0));
#241=DIRECTION('',(0.E0,-1.E0,0.E0));
#242=DIRECTION('',(0.E0,0.E0,-1.E0));
#243=AXIS2_PLACEMENT_3D('',#240,#241,#242);
#244=CYLINDRICAL_SURFACE('',#243,1.E0);
#245=ORIENTED_EDGE('',*,*,#215,.T.);
#247=ORIENTED_EDGE('',*,*,#246,.F.);
#249=ORIENTED_EDGE('',*,*,#248,.T.);
#251=ORIENTED_EDGE('',*,*,#250,.T.);
#252=EDGE_LOOP('',(#245,#247,#249,#251));
#253=FACE_OUTER_BOUND('',#252,.F.);
#254=ADVANCED_FACE('',(#253),#244,.T.);
#255=CARTESIAN_POINT('',(6.E0,0.E0,6.E0));
#256=DIRECTION('',(1.E0,0.E0,0.E0));
#257=DIRECTION('',(0.E0,0.E0,-1.E0));
#258=AXIS2_PLACEMENT_3D('',#255,#256,#257);
#259=PLANE('',#258);
#260=ORIENTED_EDGE('',*,*,#246,.T.);
#261=ORIENTED_EDGE('',*,*,#229,.F.);
#263=ORIENTED_EDGE('',*,*,#262,.F.);
#265=ORIENTED_EDGE('',*,*,#264,.T.);
#266=EDGE_LOOP('',(#260,#261,#263,#265));
#267=FACE_OUTER_BOUND('',#266,.F.);
#268=ADVANCED_FACE('',(#267),#259,.T.);
#269=CARTESIAN_POINT('',(5.E0,4.37684E1,5.E0));
#270=DIRECTION('',(0.E0,-1.E0,0.E0));
#271=DIRECTION('',(1.E0,0.E0,0.E0));
#272=AXIS2_PLACEMENT_3D('',#269,#270,#271);
#273=CYLINDRICAL_SURFACE('',#272,1.E0);
#274=ORIENTED_EDGE('',*,*,#227,.T.);
#276=ORIENTED_EDGE('',*,*,#275,.F.);
#278=ORIENTED_EDGE('',*,*,#277,.T.);
#279=ORIENTED_EDGE('',*,*,#262,.T.);
#280=EDGE_LOOP('',(#274,#276,#278,#279));
#281=FACE_OUTER_BOUND('',#280,.F.);
#282=ADVANCED_FACE('',(#281),#273,.T.);
#283=CARTESIAN_POINT('',(-6.E0,0.E0,6.E0));
#284=DIRECTION('',(0.E0,0.E0,1.E0));
#285=DIRECTION('',(1.E0,0.E0,0.E0));
#286=AXIS2_PLACEMENT_3D('',#283,#284,#285);
#287=PLANE('',#286);
#288=ORIENTED_EDGE('',*,*,#275,.T.);
#289=ORIENTED_EDGE('',*,*,#225,.F.);
#291=ORIENTED_EDGE('',*,*,#290,.F.);
#293=ORIENTED_EDGE('',*,*,#292,.T.);
#294=EDGE_LOOP('',(#288,#289,#291,#293));
#295=FACE_OUTER_BOUND('',#294,.F.);
#296=ADVANCED_FACE('',(#295),#287,.T.);
#297=CARTESIAN_POINT('',(-5.E0,4.37684E1,5.E0));
#298=DIRECTION('',(0.E0,-1.E0,0.E0));
#299=DIRECTION('',(0.E0,0.E0,1.E0));
#300=AXIS2_PLACEMENT_3D('',#297,#298,#299);
#301=CYLINDRICAL_SURFACE('',#300,1.E0);
#302=ORIENTED_EDGE('',*,*,#223,.T.);
#304=ORIENTED_EDGE('',*,*,#303,.F.);
#306=ORIENTED_EDGE('',*,*,#305,.T.);
#307=ORIENTED_EDGE('',*,*,#290,.T.);
#308=EDGE_LOOP('',(#302,#304,#306,#307));
#309=FACE_OUTER_BOUND('',#308,.F.);
#310=ADVANCED_FACE('',(#309),#301,.T.);
#311=CARTESIAN_POINT('',(-6.E0,0.E0,-6.E0));
#312=DIRECTION('',(-1.E0,0.E0,0.E0));
#313=DIRECTION('',(0.E0,0.E0,1.E0));
#314=AXIS2_PLACEMENT_3D('',#311,#312,#313);
#315=PLANE('',#314);
#317=ORIENTED_EDGE('',*,*,#316,.F.);
#319=ORIENTED_EDGE('',*,*,#318,.T.);
#320=ORIENTED_EDGE('',*,*,#303,.T.);
#321=ORIENTED_EDGE('',*,*,#221,.F.);
#322=EDGE_LOOP('',(#317,#319,#320,#321));
#323=FACE_OUTER_BOUND('',#322,.F.);
#324=ADVANCED_FACE('',(#323),#315,.T.);
#325=CARTESIAN_POINT('',(-5.E0,4.37684E1,-5.E0));
#326=DIRECTION('',(0.E0,-1.E0,0.E0));
#327=DIRECTION('',(-1.E0,0.E0,0.E0));
#328=AXIS2_PLACEMENT_3D('',#325,#326,#327);
#329=CYLINDRICAL_SURFACE('',#328,1.E0);
#330=ORIENTED_EDGE('',*,*,#219,.T.);
#332=ORIENTED_EDGE('',*,*,#331,.F.);
#334=ORIENTED_EDGE('',*,*,#333,.T.);
#335=ORIENTED_EDGE('',*,*,#316,.T.);
#336=EDGE_LOOP('',(#330,#332,#334,#335));
#337=FACE_OUTER_BOUND('',#336,.F.);
#338=ADVANCED_FACE('',(#337),#329,.T.);
#339=CARTESIAN_POINT('',(6.E0,0.E0,-6.E0));
#340=DIRECTION('',(0.E0,0.E0,-1.E0));
#341=DIRECTION('',(-1.E0,0.E0,0.E0));
#342=AXIS2_PLACEMENT_3D('',#339,#340,#341);
#343=PLANE('',#342);
#344=ORIENTED_EDGE('',*,*,#250,.F.);
#346=ORIENTED_EDGE('',*,*,#345,.T.);
#347=ORIENTED_EDGE('',*,*,#331,.T.);
#348=ORIENTED_EDGE('',*,*,#217,.F.);
#349=EDGE_LOOP('',(#344,#346,#347,#348));
#350=FACE_OUTER_BOUND('',#349,.F.);
#351=ADVANCED_FACE('',(#350),#343,.T.);
#352=CARTESIAN_POINT('',(0.E0,8.E0,0.E0));
#353=DIRECTION('',(0.E0,1.E0,0.E0));
#354=DIRECTION('',(1.E0,0.E0,0.E0));
#355=AXIS2_PLACEMENT_3D('',#352,#353,#354);
#356=PLANE('',#355);
#357=ORIENTED_EDGE('',*,*,#248,.F.);
#358=ORIENTED_EDGE('',*,*,#264,.F.);
#359=ORIENTED_EDGE('',*,*,#277,.F.);
#360=ORIENTED_EDGE('',*,*,#292,.F.);
#361=ORIENTED_EDGE('',*,*,#305,.F.);
#362=ORIENTED_EDGE('',*,*,#318,.F.);
#363=ORIENTED_EDGE('',*,*,#333,.F.);
#364=ORIENTED_EDGE('',*,*,#345,.F.);
#365=EDGE_LOOP('',(#357,#358,#359,#360,#361,#362,#363,#364));
#366=FACE_OUTER_BOUND('',#365,.F.);
#368=ORIENTED_EDGE('',*,*,#367,.T.);
#370=ORIENTED_EDGE('',*,*,#369,.T.);
#371=EDGE_LOOP('',(#368,#370));
#372=FACE_BOUND('',#371,.F.);
#373=ADVANCED_FACE('',(#366,#372),#356,.T.);
#374=CARTESIAN_POINT('',(0.E0,8.E0,0.E0));
#375=DIRECTION('',(0.E0,1.E0,0.E0));
#376=DIRECTION('',(1.E0,0.E0,0.E0));
#377=AXIS2_PLACEMENT_3D('',#374,#375,#376);
#378=CYLINDRICAL_SURFACE('',#377,5.E0);
#379=ORIENTED_EDGE('',*,*,#367,.F.);
#381=ORIENTED_EDGE('',*,*,#380,.T.);
#383=ORIENTED_EDGE('',*,*,#382,.T.);
#385=ORIENTED_EDGE('',*,*,#384,.F.);
#386=EDGE_LOOP('',(#379,#381,#383,#385));
#387=FACE_OUTER_BOUND('',#386,.F.);
#388=ADVANCED_FACE('',(#387),#378,.T.);
#389=CARTESIAN_POINT('',(0.E0,8.E0,0.E0));
#390=DIRECTION('',(0.E0,1.E0,0.E0));
#391=DIRECTION('',(1.E0,0.E0,0.E0));
#392=AXIS2_PLACEMENT_3D('',#389,#390,#391);
#393=CYLINDRICAL_SURFACE('',#392,5.E0);
#394=ORIENTED_EDGE('',*,*,#369,.F.);
#395=ORIENTED_EDGE('',*,*,#384,.T.);
#397=ORIENTED_EDGE('',*,*,#396,.T.);
#398=ORIENTED_EDGE('',*,*,#380,.F.);
#399=EDGE_LOOP('',(#394,#395,#397,#398));
#400=FACE_OUTER_BOUND('',#399,.F.);
#401=ADVANCED_FACE('',(#400),#393,.T.);
#402=CARTESIAN_POINT('',(0.E0,1.9E1,0.E0));
#403=DIRECTION('',(0.E0,1.E0,0.E0));
#404=DIRECTION('',(1.E0,0.E0,0.E0));
#405=AXIS2_PLACEMENT_3D('',#402,#403,#404);
#406=PLANE('',#405);
#407=ORIENTED_EDGE('',*,*,#382,.F.);
#408=ORIENTED_EDGE('',*,*,#396,.F.);
#409=EDGE_LOOP('',(#407,#408));
#410=FACE_OUTER_BOUND('',#409,.F.);
#411=ADVANCED_FACE('',(#410),#406,.T.);
#412=CARTESIAN_POINT('',(0.E0,0.E0,0.E0));
#413=DIRECTION('',(0.E0,-1.E0,0.E0));
#414=DIRECTION('',(1.E0,0.E0,0.E0));
#415=AXIS2_PLACEMENT_3D('',#412,#413,#414);
#416=CYLINDRICAL_SURFACE('',#415,2.040747220588E0);
#417=ORIENTED_EDGE('',*,*,#233,.F.);
#419=ORIENTED_EDGE('',*,*,#418,.T.);
#421=ORIENTED_EDGE('',*,*,#420,.T.);
#423=ORIENTED_EDGE('',*,*,#422,.F.);
#424=EDGE_LOOP('',(#417,#419,#421,#423));
#425=FACE_OUTER_BOUND('',#424,.F.);
#426=ADVANCED_FACE('',(#425),#416,.F.);
#427=CARTESIAN_POINT('',(0.E0,0.E0,0.E0));
#428=DIRECTION('',(0.E0,-1.E0,0.E0));
#429=DIRECTION('',(1.E0,0.E0,0.E0));
#430=AXIS2_PLACEMENT_3D('',#427,#428,#429);
#431=CYLINDRICAL_SURFACE('',#430,2.040747220588E0);
#432=ORIENTED_EDGE('',*,*,#235,.F.);
#433=ORIENTED_EDGE('',*,*,#422,.T.);
#435=ORIENTED_EDGE('',*,*,#434,.T.);
#436=ORIENTED_EDGE('',*,*,#418,.F.);
#437=EDGE_LOOP('',(#432,#433,#435,#436));
#438=FACE_OUTER_BOUND('',#437,.F.);
#439=ADVANCED_FACE('',(#438),#431,.F.);
#440=CARTESIAN_POINT('',(0.E0,5.3E0,0.E0));
#441=DIRECTION('',(0.E0,-1.E0,0.E0));
#442=DIRECTION('',(1.E0,0.E0,0.E0));
#443=AXIS2_PLACEMENT_3D('',#440,#441,#442);
#444=PLANE('',#443);
#445=ORIENTED_EDGE('',*,*,#420,.F.);
#446=ORIENTED_EDGE('',*,*,#434,.F.);
#447=EDGE_LOOP('',(#445,#446));
#448=FACE_OUTER_BOUND('',#447,.F.);
#449=ADVANCED_FACE('',(#448),#444,.T.);
#453=DIMENSIONAL_EXPONENTS(0.E0,0.E0,0.E0,0.E0,0.E0,0.E0,0.E0);
#455=PLANE_ANGLE_MEASURE_WITH_UNIT(PLANE_ANGLE_MEASURE(1.745329251994E-2),#454);
#456=(CONVERSION_BASED_UNIT('DEGREE',#455)NAMED_UNIT(*)PLANE_ANGLE_UNIT());
#458=UNCERTAINTY_MEASURE_WITH_UNIT(LENGTH_MEASURE(2.547445938658E-3),#452,
'closure',
'Maximum model space distance between geometric entities at asserted connectivities');
#459=(GEOMETRIC_REPRESENTATION_CONTEXT(3)GLOBAL_UNCERTAINTY_ASSIGNED_CONTEXT((
#458))GLOBAL_UNIT_ASSIGNED_CONTEXT((#452,#456,#457))REPRESENTATION_CONTEXT
('ID1','3'));
#461=APPLICATION_CONTEXT(
'CONFIGURATION CONTROLLED 3D DESIGNS OF MECHANICAL PARTS AND ASSEMBLIES');
#462=APPLICATION_PROTOCOL_DEFINITION('international standard',
'config_control_design',1994,#461);
#463=DESIGN_CONTEXT('',#461,'design');
#464=MECHANICAL_CONTEXT('',#461,'mechanical');
#465=PRODUCT('LED_BUTTON_BTN','LED_BUTTON_BTN','NOT SPECIFIED',(#464));
#466=PRODUCT_DEFINITION_FORMATION_WITH_SPECIFIED_SOURCE('6','LAST_VERSION',#465,
.MADE.);
#470=PRODUCT_CATEGORY('part','');
#471=PRODUCT_RELATED_PRODUCT_CATEGORY('detail','',(#465));
#472=PRODUCT_CATEGORY_RELATIONSHIP('','',#470,#471);
#473=SECURITY_CLASSIFICATION_LEVEL('unclassified');
#474=SECURITY_CLASSIFICATION('','',#473);
#475=CC_DESIGN_SECURITY_CLASSIFICATION(#474,(#466));
#476=APPROVAL_STATUS('approved');
#477=APPROVAL(#476,'');
#478=CC_DESIGN_APPROVAL(#477,(#474,#466,#467));
#479=CALENDAR_DATE(124,7,11);
#480=COORDINATED_UNIVERSAL_TIME_OFFSET(1,0,.AHEAD.);
#481=LOCAL_TIME(16,32,2.4E1,#480);
#482=DATE_AND_TIME(#479,#481);
#483=APPROVAL_DATE_TIME(#482,#477);
#484=DATE_TIME_ROLE('creation_date');
#485=CC_DESIGN_DATE_AND_TIME_ASSIGNMENT(#482,#484,(#467));
#486=DATE_TIME_ROLE('classification_date');
#487=CC_DESIGN_DATE_AND_TIME_ASSIGNMENT(#482,#486,(#474));
#488=PERSON('UNSPECIFIED','UNSPECIFIED',$,$,$,$);
#489=ORGANIZATION('UNSPECIFIED','UNSPECIFIED','UNSPECIFIED');
#490=PERSON_AND_ORGANIZATION(#488,#489);
#491=APPROVAL_ROLE('approver');
#492=APPROVAL_PERSON_ORGANIZATION(#490,#477,#491);
#493=PERSON_AND_ORGANIZATION_ROLE('creator');
#494=CC_DESIGN_PERSON_AND_ORGANIZATION_ASSIGNMENT(#490,#493,(#466,#467));
#495=PERSON_AND_ORGANIZATION_ROLE('design_supplier');
#496=CC_DESIGN_PERSON_AND_ORGANIZATION_ASSIGNMENT(#490,#495,(#466));
#497=PERSON_AND_ORGANIZATION_ROLE('classification_officer');
#498=CC_DESIGN_PERSON_AND_ORGANIZATION_ASSIGNMENT(#490,#497,(#474));
#499=PERSON_AND_ORGANIZATION_ROLE('design_owner');
#500=CC_DESIGN_PERSON_AND_ORGANIZATION_ASSIGNMENT(#490,#499,(#465));
#6=CIRCLE('',#5,1.E0);
#15=CIRCLE('',#14,1.E0);
#24=CIRCLE('',#23,1.E0);
#33=CIRCLE('',#32,1.E0);
#42=CIRCLE('',#41,2.040747220588E0);
#47=CIRCLE('',#46,2.040747220588E0);
#84=CIRCLE('',#83,5.E0);
#89=CIRCLE('',#88,5.E0);
#94=CIRCLE('',#93,1.E0);
#103=CIRCLE('',#102,1.E0);
#112=CIRCLE('',#111,1.E0);
#121=CIRCLE('',#120,1.E0);
#138=CIRCLE('',#137,5.E0);
#143=CIRCLE('',#142,5.E0);
#156=CIRCLE('',#155,2.040747220588E0);
#161=CIRCLE('',#160,2.040747220588E0);
#215=EDGE_CURVE('',#172,#173,#6,.T.);
#217=EDGE_CURVE('',#172,#181,#10,.T.);
#219=EDGE_CURVE('',#180,#181,#15,.T.);
#221=EDGE_CURVE('',#180,#197,#19,.T.);
#223=EDGE_CURVE('',#196,#197,#24,.T.);
#225=EDGE_CURVE('',#196,#189,#28,.T.);
#227=EDGE_CURVE('',#188,#189,#33,.T.);
#229=EDGE_CURVE('',#188,#173,#37,.T.);
#233=EDGE_CURVE('',#208,#209,#42,.T.);
#235=EDGE_CURVE('',#209,#208,#47,.T.);
#246=EDGE_CURVE('',#175,#173,#51,.T.);
#248=EDGE_CURVE('',#175,#177,#94,.T.);
#250=EDGE_CURVE('',#177,#172,#75,.T.);
#262=EDGE_CURVE('',#193,#188,#55,.T.);
#264=EDGE_CURVE('',#193,#175,#98,.T.);
#275=EDGE_CURVE('',#191,#189,#59,.T.);
#277=EDGE_CURVE('',#191,#193,#103,.T.);
#290=EDGE_CURVE('',#201,#196,#63,.T.);
#292=EDGE_CURVE('',#201,#191,#107,.T.);
#303=EDGE_CURVE('',#199,#197,#71,.T.);
#305=EDGE_CURVE('',#199,#201,#112,.T.);
#316=EDGE_CURVE('',#185,#180,#67,.T.);
#318=EDGE_CURVE('',#185,#199,#116,.T.);
#331=EDGE_CURVE('',#183,#181,#79,.T.);
#333=EDGE_CURVE('',#183,#185,#121,.T.);
#345=EDGE_CURVE('',#177,#183,#125,.T.);
#367=EDGE_CURVE('',#168,#169,#84,.T.);
#369=EDGE_CURVE('',#169,#168,#89,.T.);
#380=EDGE_CURVE('',#168,#164,#129,.T.);
#382=EDGE_CURVE('',#164,#165,#138,.T.);
#384=EDGE_CURVE('',#169,#165,#133,.T.);
#396=EDGE_CURVE('',#165,#164,#143,.T.);
#418=EDGE_CURVE('',#208,#204,#147,.T.);
#420=EDGE_CURVE('',#204,#205,#156,.T.);
#422=EDGE_CURVE('',#209,#205,#151,.T.);
#434=EDGE_CURVE('',#205,#204,#161,.T.);
#450=CLOSED_SHELL('',(#239,#254,#268,#282,#296,#310,#324,#338,#351,#373,#388,
#401,#411,#426,#439,#449));
#451=MANIFOLD_SOLID_BREP('',#450);
#452=(LENGTH_UNIT()NAMED_UNIT(*)SI_UNIT(.MILLI.,.METRE.));
#454=(NAMED_UNIT(*)PLANE_ANGLE_UNIT()SI_UNIT($,.RADIAN.));
#457=(NAMED_UNIT(*)SI_UNIT($,.STERADIAN.)SOLID_ANGLE_UNIT());
#460=ADVANCED_BREP_SHAPE_REPRESENTATION('',(#451),#459);
#467=PRODUCT_DEFINITION('design','',#466,#463);
#468=PRODUCT_DEFINITION_SHAPE('','SHAPE FOR LED_BUTTON_BTN.',#467);
#469=SHAPE_DEFINITION_REPRESENTATION(#468,#460);
ENDSEC;
END-ISO-10303-21;
